<svg width="626" height="868" viewBox="0 0 626 868" fill="none" xmlns="http://www.w3.org/2000/svg">
<g clip-path="url(#clip0_9_4)">
<rect width="626" height="868" rx="40" fill="white"/>
<g opacity="0.5" filter="url(#filter0_f_9_4)">
<circle cx="-134" cy="-186" r="408" fill="#19B188"/>
</g>
<path d="M53.8846 44.3928L60.6046 44.3754L60.7187 88.4753L53.9988 88.4927L53.8846 44.3928ZM70.3641 60.9102L76.7241 60.8938L76.7971 65.9336C77.5528 64.2516 78.7492 62.8685 80.3864 61.7843C82.0236 60.7 83.9422 60.1551 86.1422 60.1494C88.9822 60.142 91.1637 60.7364 92.6868 61.9324C94.2098 63.0885 95.2341 64.7259 95.7596 66.8445C96.2851 68.9632 96.5522 71.7225 96.561 75.1225L96.5953 88.3824L90.1153 88.3992L90.0815 75.3192C90.0725 71.8392 89.726 69.3401 89.0421 67.8219C88.358 66.2637 86.956 65.4873 84.836 65.4928C83.636 65.4959 82.417 65.879 81.179 66.6423C79.9409 67.3655 78.9036 68.4281 78.0672 69.8303C77.2709 71.2324 76.8751 72.8734 76.88 74.7534L76.9154 88.4334L70.4354 88.4501L70.3641 60.9102ZM107.289 66.0947L102.429 66.1072L102.416 60.8273L107.276 60.8147L107.247 49.5947L113.783 48.1378L113.816 60.7977L120.176 60.7813L120.189 66.0613L113.829 66.0777L113.887 88.3376L107.347 88.3546L107.289 66.0947ZM138.535 88.8738C135.255 88.8823 132.513 88.2494 130.31 86.9751C128.107 85.6608 126.482 83.925 125.436 81.7677C124.391 79.5704 123.865 77.1718 123.858 74.5718C123.85 71.6518 124.444 69.0903 125.638 66.8872C126.872 64.6839 128.568 62.9996 130.725 61.834C132.882 60.6284 135.32 60.0221 138.04 60.015C142.28 60.004 145.423 61.1759 147.469 63.5306C149.555 65.8452 150.604 69.1225 150.615 73.3625C150.618 74.4425 150.56 75.5627 150.443 76.723L130.644 76.7742C131.09 79.2131 131.954 80.9708 133.237 82.0475C134.56 83.1241 136.381 83.6594 138.701 83.6534C140.621 83.6484 142.201 83.4843 143.44 83.1611C144.679 82.8379 145.818 82.395 146.857 81.8323L148.849 86.4471C147.85 87.0897 146.492 87.6532 144.773 88.1377C143.054 88.6221 140.975 88.8675 138.535 88.8738ZM144.312 72.2388C144.345 69.7587 143.801 68.0201 142.678 67.023C141.556 65.9859 139.954 65.4701 137.874 65.4755C133.674 65.4863 131.26 67.7526 130.632 72.2742L144.312 72.2388ZM157.196 60.6854L163.676 60.6687L163.69 66.0686C164.325 64.227 165.361 62.7443 166.798 61.6206C168.235 60.4969 169.874 59.9326 171.714 59.9278C172.994 59.9245 173.874 60.0423 174.355 60.281L173.471 66.8233C173.111 66.5843 172.331 66.4663 171.131 66.4694C169.251 66.4742 167.532 67.0787 165.975 68.2827C164.458 69.4867 163.703 71.4086 163.71 74.0486L163.747 88.2086L157.267 88.2253L157.196 60.6854ZM191.191 88.7375C188.711 88.7439 186.409 88.1699 184.286 87.0154C182.203 85.8208 180.519 84.1451 179.233 81.9885C177.988 79.7917 177.361 77.2333 177.353 74.3133C177.346 71.4333 177.879 68.9119 178.954 66.7491C180.068 64.5862 181.644 62.9021 183.681 61.6969C185.718 60.4916 188.116 59.8854 190.876 59.8782C192.476 59.8741 193.977 60.1502 195.378 60.7066C196.78 61.263 197.961 61.9599 198.924 62.7974C199.886 63.5949 200.528 64.3933 200.85 65.1924L200.958 60.5721L207.138 60.5561L207.209 88.096L201.089 88.1119L200.957 83.2522C200.28 84.694 199.044 85.9772 197.247 87.1018C195.449 88.1865 193.431 88.7317 191.191 88.7375ZM192.257 83.3347C194.537 83.3288 196.455 82.5439 198.011 80.9798C199.567 79.3758 200.341 77.2938 200.335 74.7338L200.333 74.3138C200.329 72.5938 199.965 71.0547 199.242 69.6966C198.518 68.3385 197.535 67.281 196.293 66.5242C195.051 65.7674 193.69 65.391 192.21 65.3948C189.65 65.4014 187.673 66.2466 186.277 67.9302C184.881 69.5738 184.187 71.7156 184.194 74.3556C184.2 77.0356 184.886 79.2138 186.25 80.8903C187.655 82.5267 189.657 83.3415 192.257 83.3347ZM228.765 88.6402C226.045 88.6473 223.583 88.0737 221.38 86.9194C219.217 85.725 217.493 84.0294 216.207 81.8327C214.921 79.5961 214.274 76.9777 214.267 73.9777C214.259 71.1377 214.833 68.6562 215.987 66.5332C217.182 64.3701 218.838 62.7059 220.955 61.5404C223.112 60.3748 225.59 59.7884 228.39 59.7811C230.51 59.7756 232.331 60.0509 233.852 60.607C235.414 61.1229 236.635 61.7798 237.517 62.5775L234.651 67.8049C232.966 66.1293 231.064 65.2942 228.944 65.2997C226.384 65.3063 224.426 66.0914 223.07 67.6549C221.754 69.2183 221.1 71.3 221.107 73.9C221.114 76.86 221.8 79.1582 223.164 80.7947C224.569 82.4311 226.511 83.2461 228.991 83.2396C230.231 83.2364 231.43 83.0533 232.589 82.6903C233.788 82.3272 234.707 81.9048 235.346 81.4232L237.698 85.9771C236.82 86.6594 235.581 87.2826 233.983 87.8467C232.424 88.3708 230.685 88.6353 228.765 88.6402ZM246.215 65.735L241.355 65.7476L241.341 60.4676L246.201 60.455L246.172 49.235L252.708 47.7781L252.741 60.4381L259.101 60.4216L259.115 65.7016L252.755 65.7181L252.812 87.978L246.272 87.9949L246.215 65.735ZM264.847 60.4067L271.567 60.3893L271.639 87.9292L264.919 87.9466L264.847 60.4067ZM268.134 55.2382C266.894 55.2414 265.853 54.8241 265.011 53.9863C264.169 53.1485 263.746 52.1096 263.743 50.8696C263.74 49.7496 264.157 48.7885 264.995 47.9863C265.833 47.1841 266.872 46.7814 268.112 46.7782C269.312 46.7751 270.333 47.1725 271.175 47.9703C272.017 48.7681 272.44 49.727 272.443 50.847C272.446 52.087 272.029 53.1281 271.191 53.9703C270.393 54.8124 269.374 55.235 268.134 55.2382ZM276.159 60.3774L283.539 60.3583L289.511 72.7629L291.444 77.7379L293.351 72.753L299.199 60.3178L306.399 60.2992L292.01 87.8765L290.75 87.8798L276.159 60.3774ZM322.929 88.3965C319.649 88.405 316.907 87.7721 314.704 86.4978C312.5 85.1835 310.876 83.4477 309.83 81.2904C308.785 79.0931 308.258 76.6944 308.252 74.0944C308.244 71.1744 308.838 68.6129 310.032 66.4098C311.266 64.2066 312.962 62.5222 315.119 61.3566C317.276 60.151 319.714 59.5447 322.434 59.5376C326.674 59.5267 329.817 60.6985 331.863 63.0532C333.949 65.3679 334.998 68.6452 335.009 72.8851C335.011 73.9651 334.954 75.0853 334.837 76.2456L315.037 76.2969C315.484 78.7357 316.348 80.4935 317.631 81.5702C318.954 82.6467 320.775 83.182 323.095 83.176C325.015 83.171 326.595 83.007 327.834 82.6837C329.073 82.3605 330.212 81.9176 331.251 81.3549L333.243 85.9698C332.244 86.6123 330.886 87.1759 329.167 87.6603C327.448 88.1448 325.369 88.3901 322.929 88.3965ZM328.706 71.7615C328.739 69.2814 328.195 67.5428 327.072 66.5457C325.95 65.5086 324.348 64.9927 322.268 64.9981C318.068 65.009 315.654 67.2752 315.026 71.7969L328.706 71.7615Z" fill="#19B188"/>
<path d="M356.854 43.6085L363.634 43.5909L363.732 81.6908L376.392 81.658L376.408 87.658L356.968 87.7083L356.854 43.6085ZM395.468 88.2087C392.188 88.2172 389.446 87.5843 387.243 86.31C385.039 84.9957 383.415 83.2599 382.369 81.1026C381.323 78.9053 380.797 76.5066 380.791 73.9066C380.783 70.9866 381.376 68.4251 382.571 66.222C383.805 64.0188 385.501 62.3344 387.658 61.1688C389.814 59.9632 392.253 59.3569 394.973 59.3499C399.213 59.3389 402.356 60.5107 404.402 62.8655C406.488 65.1801 407.537 68.4574 407.547 72.6973C407.55 73.7773 407.493 74.8975 407.376 76.0578L387.576 76.1091C388.023 78.5479 388.887 80.3057 390.17 81.3824C391.493 82.4589 393.314 82.9942 395.634 82.9882C397.554 82.9833 399.134 82.8192 400.373 82.496C401.612 82.1727 402.751 81.7298 403.789 81.1671L405.781 85.782C404.783 86.4245 403.424 86.9881 401.706 87.4725C399.987 87.957 397.908 88.2024 395.468 88.2087ZM401.245 71.5737C401.278 69.0936 400.734 67.355 399.611 66.3579C398.488 65.3208 396.887 64.8049 394.807 64.8103C390.607 64.8212 388.193 67.0874 387.565 71.6091L401.245 71.5737ZM426.561 88.1282C424.081 88.1346 421.78 87.5605 419.657 86.406C417.574 85.2114 415.889 83.5358 414.604 81.3791C413.358 79.1823 412.731 76.6239 412.724 73.7039C412.716 70.824 413.25 68.3026 414.324 66.1398C415.439 63.9769 417.014 62.2928 419.051 61.0875C421.088 59.8822 423.486 59.276 426.246 59.2689C427.846 59.2647 429.347 59.5409 430.749 60.0972C432.15 60.6536 433.332 61.3506 434.294 62.1881C435.256 62.9856 435.898 63.7839 436.22 64.5831L436.328 59.9628L442.508 59.9468L442.579 87.4867L436.46 87.5025L436.327 82.6429C435.651 84.0846 434.414 85.3678 432.617 86.4925C430.82 87.5771 428.801 88.1224 426.561 88.1282ZM427.627 82.7254C429.907 82.7195 431.825 81.9345 433.381 80.3705C434.937 78.7665 435.711 76.6844 435.705 74.1245L435.704 73.7045C435.699 71.9845 435.335 70.4454 434.612 69.0873C433.888 67.7291 432.906 66.6717 431.664 65.9149C430.422 65.1581 429.061 64.7816 427.581 64.7855C425.021 64.7921 423.043 65.6372 421.647 67.3208C420.251 68.9644 419.557 71.1062 419.564 73.7462C419.571 76.4262 420.256 78.6045 421.621 80.2809C423.025 81.9173 425.027 82.7321 427.627 82.7254ZM451.042 59.9247L457.522 59.9079L457.536 65.3079C458.171 63.4663 459.208 61.9836 460.645 60.8598C462.082 59.7361 463.72 59.1719 465.56 59.1671C466.84 59.1638 467.721 59.2815 468.201 59.5203L467.318 66.0626C466.958 65.8235 466.177 65.7055 464.977 65.7086C463.097 65.7135 461.379 66.318 459.822 67.522C458.305 68.7259 457.55 70.6479 457.557 73.2879L457.593 87.4478L451.114 87.4646L451.042 59.9247ZM472.785 59.8684L479.145 59.8519L479.218 64.8918C479.973 63.2098 481.17 61.8267 482.807 60.7425C484.444 59.6582 486.363 59.1133 488.563 59.1076C491.403 59.1002 493.584 59.6946 495.107 60.8906C496.63 62.0467 497.655 63.684 498.18 65.8027C498.706 67.9213 498.973 70.6806 498.982 74.0806L499.016 87.3406L492.536 87.3574L492.502 74.2774C492.493 70.7974 492.147 68.2983 491.463 66.7801C490.779 65.2218 489.377 64.4455 487.257 64.451C486.057 64.4541 484.838 64.8372 483.6 65.6004C482.361 66.3236 481.324 67.3863 480.488 68.7885C479.691 70.1906 479.296 71.8316 479.301 73.7116L479.336 87.3915L472.856 87.4083L472.785 59.8684ZM507.776 59.7778L514.496 59.7604L514.568 87.3003L507.848 87.3177L507.776 59.7778ZM511.063 54.6093C509.823 54.6125 508.782 54.1952 507.94 53.3574C507.097 52.5196 506.675 51.4806 506.672 50.2406C506.669 49.1207 507.086 48.1596 507.924 47.3574C508.762 46.5552 509.801 46.1525 511.041 46.1493C512.241 46.1462 513.262 46.5436 514.104 47.3414C514.946 48.1392 515.369 49.0981 515.372 50.2181C515.375 51.4581 514.957 52.4992 514.12 53.3414C513.322 54.1834 512.303 54.6061 511.063 54.6093ZM523.468 59.7372L529.828 59.7207L529.901 64.7606C530.657 63.0786 531.853 61.6955 533.49 60.6113C535.128 59.527 537.046 58.982 539.246 58.9763C542.086 58.969 544.268 59.5633 545.791 60.7594C547.314 61.9155 548.338 63.5528 548.864 65.6715C549.389 67.7901 549.656 70.5494 549.665 73.9494L549.699 87.2094L543.219 87.2262L543.185 74.1462C543.176 70.6662 542.83 68.1671 542.146 66.6489C541.462 65.0906 540.06 64.3143 537.94 64.3197C536.74 64.3229 535.521 64.706 534.283 65.4692C533.045 66.1924 532.008 67.2551 531.171 68.6573C530.375 70.0593 529.979 71.7004 529.984 73.5804L530.019 87.2603L523.539 87.2771L523.468 59.7372ZM571.468 101.553C569.428 101.558 567.407 101.284 565.406 100.729C563.445 100.174 562.043 99.6575 561.202 99.1796L562.626 93.1759C565.271 94.8891 568.153 95.7416 571.273 95.7336C573.673 95.7273 575.692 95.1421 577.329 93.9779C578.966 92.8136 579.8 90.5515 579.831 87.1914L579.818 82.2714C578.982 83.8336 577.626 85.1371 575.748 86.1819C573.871 87.2268 571.792 87.7522 569.512 87.7581C567.112 87.7643 564.911 87.19 562.908 86.0352C560.905 84.8404 559.321 83.1445 558.155 80.9475C556.989 78.7505 556.403 76.192 556.395 73.272C556.388 70.472 556.921 67.9906 557.996 65.8278C559.11 63.6249 560.686 61.9209 562.722 60.7156C564.759 59.5103 567.138 58.9041 569.858 58.8971C571.458 58.893 572.958 59.1691 574.36 59.7254C575.761 60.2818 576.943 60.9788 577.905 61.8163C578.907 62.6137 579.569 63.412 579.892 64.2111L580 59.5908L586.12 59.575L586.19 86.9349C586.203 91.6149 585.012 95.218 582.618 97.7442C580.225 100.27 576.508 101.54 571.468 101.553ZM571.298 82.2934C573.578 82.2875 575.496 81.5026 577.052 79.9385C578.608 78.3345 579.383 76.2525 579.376 73.6925L579.375 73.2725C579.371 71.5525 579.007 70.0134 578.283 68.6553C577.56 67.2972 576.577 66.2397 575.335 65.4829C574.093 64.7261 572.732 64.3497 571.252 64.3535C568.692 64.3601 566.714 65.2053 565.318 66.8889C563.923 68.5325 563.228 70.6743 563.235 73.3143C563.242 75.9943 563.928 78.1725 565.292 79.849C566.696 81.4854 568.698 82.3002 571.298 82.2934ZM214.684 115.917L236.038 160.022L228.298 160.042L224.496 151.412L204.276 151.464L200.519 160.114L193.019 160.133L214.024 115.918L214.684 115.917ZM211.733 134.704L206.96 145.397L221.84 145.358L217.073 134.751L214.477 128.697L214.357 128.698L211.733 134.704ZM248.794 160.589C246.874 160.594 244.874 160.359 242.792 159.884C240.751 159.369 239.289 158.773 238.408 158.096L240.554 152.99C242.959 154.664 245.701 155.497 248.781 155.489C251.861 155.481 253.399 154.577 253.394 152.777C253.392 151.977 253.07 151.358 252.429 150.919C251.788 150.481 250.647 149.964 249.005 149.368L246.723 148.534C244.32 147.58 242.418 146.445 241.014 145.129C239.611 143.772 238.906 141.994 238.9 139.794C238.894 137.274 239.869 135.312 241.825 133.907C243.821 132.461 246.479 131.735 249.799 131.726C251.439 131.722 253.04 131.898 254.601 132.254C256.202 132.609 257.423 133.066 258.264 133.624L255.938 138.79C255.416 138.271 254.575 137.834 253.414 137.477C252.293 137.079 251.033 136.883 249.633 136.886C246.793 136.894 245.375 137.757 245.38 139.477C245.382 140.437 245.764 141.176 246.525 141.694C247.286 142.172 248.528 142.709 250.249 143.305C250.41 143.344 251.03 143.563 252.111 143.96C254.674 144.953 256.577 146.088 257.82 147.365C259.063 148.642 259.688 150.28 259.693 152.28C259.7 155 258.665 157.063 256.589 158.468C254.552 159.874 251.954 160.58 248.794 160.589ZM275.923 160.518C274.003 160.523 272.002 160.289 269.921 159.814C267.88 159.299 266.418 158.703 265.537 158.025L267.683 152.92C270.088 154.593 272.83 155.426 275.91 155.418C278.99 155.41 280.527 154.506 280.523 152.706C280.521 151.906 280.199 151.287 279.558 150.849C278.917 150.411 277.775 149.894 276.134 149.298L273.852 148.464C271.449 147.51 269.546 146.375 268.143 145.058C266.739 143.702 266.035 141.924 266.029 139.724C266.023 137.204 266.998 135.241 268.954 133.836C270.95 132.391 273.608 131.664 276.928 131.656C278.568 131.651 280.169 131.827 281.73 132.183C283.331 132.539 284.552 132.996 285.393 133.554L283.067 138.72C282.545 138.201 281.704 137.763 280.543 137.406C279.422 137.009 278.162 136.813 276.762 136.816C273.922 136.823 272.504 137.687 272.508 139.407C272.511 140.367 272.893 141.106 273.654 141.624C274.415 142.102 275.657 142.639 277.378 143.235C277.538 143.274 278.159 143.493 279.24 143.89C281.803 144.883 283.705 146.018 284.949 147.295C286.192 148.572 286.816 150.21 286.822 152.21C286.829 154.93 285.794 156.993 283.718 158.398C281.681 159.803 279.083 160.51 275.923 160.518ZM293.979 132.332L300.699 132.314L300.77 159.854L294.05 159.871L293.979 132.332ZM297.266 127.163C296.026 127.166 294.985 126.749 294.142 125.911C293.3 125.073 292.878 124.034 292.874 122.794C292.871 121.674 293.289 120.713 294.127 119.911C294.965 119.109 296.004 118.706 297.244 118.703C298.444 118.7 299.465 119.097 300.307 119.895C301.149 120.693 301.571 121.652 301.574 122.772C301.577 124.012 301.16 125.053 300.322 125.895C299.525 126.737 298.506 127.16 297.266 127.163ZM319.224 160.406C317.304 160.411 315.303 160.176 313.222 159.702C311.18 159.187 309.719 158.591 308.837 157.913L310.984 152.808C313.388 154.481 316.13 155.314 319.21 155.306C322.29 155.298 323.828 154.394 323.823 152.594C323.821 151.794 323.5 151.175 322.859 150.737C322.217 150.299 321.076 149.781 319.435 149.186L317.152 148.352C314.75 147.398 312.847 146.263 311.444 144.946C310.04 143.59 309.335 141.812 309.33 139.612C309.323 137.092 310.298 135.129 312.255 133.724C314.251 132.279 316.909 131.552 320.229 131.544C321.869 131.539 323.469 131.715 325.03 132.071C326.631 132.427 327.852 132.884 328.694 133.442L326.367 138.608C325.846 138.089 325.005 137.651 323.844 137.294C322.723 136.897 321.462 136.7 320.062 136.704C317.222 136.711 315.805 137.575 315.809 139.295C315.811 140.255 316.193 140.994 316.955 141.512C317.716 141.99 318.957 142.527 320.679 143.122C320.839 143.162 321.46 143.38 322.541 143.778C325.103 144.771 327.006 145.906 328.249 147.183C329.493 148.46 330.117 150.098 330.122 152.098C330.129 154.818 329.095 156.881 327.018 158.286C324.982 159.691 322.384 160.398 319.224 160.406ZM339.213 137.494L334.353 137.507L334.34 132.227L339.2 132.214L339.171 120.995L345.707 119.538L345.74 132.198L352.1 132.181L352.113 137.461L345.753 137.478L345.811 159.737L339.271 159.754L339.213 137.494ZM369.619 160.276C367.139 160.282 364.837 159.708 362.714 158.554C360.631 157.359 358.947 155.683 357.661 153.527C356.416 151.33 355.789 148.772 355.781 145.852C355.774 142.972 356.307 140.45 357.382 138.287C358.496 136.125 360.072 134.44 362.109 133.235C364.146 132.03 366.544 131.424 369.304 131.417C370.904 131.412 372.405 131.689 373.806 132.245C375.208 132.801 376.389 133.498 377.352 134.336C378.314 135.133 378.956 135.932 379.278 136.731L379.386 132.11L385.566 132.094L385.637 159.634L379.517 159.65L379.385 154.791C378.708 156.232 377.472 157.515 375.675 158.64C373.877 159.725 371.859 160.27 369.619 160.276ZM370.685 154.873C372.965 154.867 374.883 154.082 376.439 152.518C377.995 150.914 378.769 148.832 378.763 146.272L378.761 145.852C378.757 144.132 378.393 142.593 377.67 141.235C376.946 139.877 375.963 138.819 374.721 138.063C373.479 137.306 372.118 136.929 370.638 136.933C368.078 136.94 366.101 137.785 364.705 139.468C363.309 141.112 362.615 143.254 362.622 145.894C362.628 148.574 363.314 150.752 364.678 152.429C366.083 154.065 368.085 154.88 370.685 154.873ZM394.28 132.072L400.64 132.055L400.713 137.095C401.469 135.413 402.665 134.03 404.302 132.946C405.939 131.862 407.858 131.317 410.058 131.311C412.898 131.304 415.08 131.898 416.603 133.094C418.126 134.25 419.15 135.888 419.675 138.006C420.201 140.125 420.468 142.884 420.477 146.284L420.511 159.544L414.031 159.561L413.997 146.481C413.988 143.001 413.642 140.502 412.958 138.984C412.274 137.425 410.872 136.649 408.752 136.654C407.552 136.658 406.333 137.041 405.095 137.804C403.857 138.527 402.819 139.59 401.983 140.992C401.187 142.394 400.791 144.035 400.796 145.915L400.831 159.595L394.351 159.612L394.28 132.072ZM431.205 137.256L426.345 137.269L426.332 131.989L431.191 131.976L431.162 120.756L437.699 119.299L437.731 131.959L444.091 131.943L444.105 137.223L437.745 137.239L437.803 159.499L431.263 159.516L431.205 137.256Z" fill="black"/>
<g filter="url(#filter1_i_9_4)">
<g filter="url(#filter2_dddd_9_4)">
<rect x="90" y="237" width="447" height="531" rx="32" fill="white"/>
<path d="M181.291 292.864L181.399 295.744V310H177.367V283.504H177.871L193.423 300.856L193.279 297.832V283.54H197.311V310H196.771L181.291 292.864ZM213.582 310.36C212.094 310.36 210.714 310.012 209.442 309.316C208.194 308.596 207.186 307.588 206.418 306.292C205.674 304.972 205.302 303.436 205.302 301.684C205.302 299.956 205.626 298.444 206.274 297.148C206.946 295.852 207.894 294.844 209.118 294.124C210.342 293.404 211.782 293.044 213.438 293.044C214.398 293.044 215.298 293.212 216.138 293.548C216.978 293.884 217.686 294.304 218.262 294.808C218.838 295.288 219.222 295.768 219.414 296.248L219.486 293.476H223.194V310H219.522L219.45 307.084C219.042 307.948 218.298 308.716 217.218 309.388C216.138 310.036 214.926 310.36 213.582 310.36ZM214.23 307.12C215.598 307.12 216.75 306.652 217.686 305.716C218.622 304.756 219.09 303.508 219.09 301.972V301.72C219.09 300.688 218.874 299.764 218.442 298.948C218.01 298.132 217.422 297.496 216.678 297.04C215.934 296.584 215.118 296.356 214.23 296.356C212.694 296.356 211.506 296.86 210.666 297.868C209.826 298.852 209.406 300.136 209.406 301.72C209.406 303.328 209.814 304.636 210.63 305.644C211.47 306.628 212.67 307.12 214.23 307.12ZM229.394 293.476H233.822L237.386 300.928L238.538 303.916L239.69 300.928L243.218 293.476H247.538L238.862 310H238.106L229.394 293.476ZM253.91 293.476H257.942V310H253.91V293.476ZM255.89 290.38C255.146 290.38 254.522 290.128 254.018 289.624C253.514 289.12 253.262 288.496 253.262 287.752C253.262 287.08 253.514 286.504 254.018 286.024C254.522 285.544 255.146 285.304 255.89 285.304C256.61 285.304 257.222 285.544 257.726 286.024C258.23 286.504 258.482 287.08 258.482 287.752C258.482 288.496 258.23 289.12 257.726 289.624C257.246 290.128 256.634 290.38 255.89 290.38ZM274.953 318.64C273.729 318.64 272.517 318.472 271.317 318.136C270.141 317.8 269.301 317.488 268.797 317.2L269.661 313.6C271.245 314.632 272.973 315.148 274.845 315.148C276.285 315.148 277.497 314.8 278.481 314.104C279.465 313.408 279.969 312.052 279.993 310.036V307.084C279.489 308.02 278.673 308.8 277.545 309.424C276.417 310.048 275.169 310.36 273.801 310.36C272.361 310.36 271.041 310.012 269.841 309.316C268.641 308.596 267.693 307.576 266.997 306.256C266.301 304.936 265.953 303.4 265.953 301.648C265.953 299.968 266.277 298.48 266.925 297.184C267.597 295.864 268.545 294.844 269.769 294.124C270.993 293.404 272.421 293.044 274.053 293.044C275.013 293.044 275.913 293.212 276.753 293.548C277.593 293.884 278.301 294.304 278.877 294.808C279.477 295.288 279.873 295.768 280.065 296.248L280.137 293.476H283.809V309.892C283.809 312.7 283.089 314.86 281.649 316.372C280.209 317.884 277.977 318.64 274.953 318.64ZM274.881 307.084C276.249 307.084 277.401 306.616 278.337 305.68C279.273 304.72 279.741 303.472 279.741 301.936V301.684C279.741 300.652 279.525 299.728 279.093 298.912C278.661 298.096 278.073 297.46 277.329 297.004C276.585 296.548 275.769 296.32 274.881 296.32C273.345 296.32 272.157 296.824 271.317 297.832C270.477 298.816 270.057 300.1 270.057 301.684C270.057 303.292 270.465 304.6 271.281 305.608C272.121 306.592 273.321 307.084 274.881 307.084ZM299.7 310.36C298.212 310.36 296.832 310.012 295.56 309.316C294.312 308.596 293.304 307.588 292.536 306.292C291.792 304.972 291.42 303.436 291.42 301.684C291.42 299.956 291.744 298.444 292.392 297.148C293.064 295.852 294.012 294.844 295.236 294.124C296.46 293.404 297.9 293.044 299.556 293.044C300.516 293.044 301.416 293.212 302.256 293.548C303.096 293.884 303.804 294.304 304.38 294.808C304.956 295.288 305.34 295.768 305.532 296.248L305.604 293.476H309.312V310H305.64L305.568 307.084C305.16 307.948 304.416 308.716 303.336 309.388C302.256 310.036 301.044 310.36 299.7 310.36ZM300.348 307.12C301.716 307.12 302.868 306.652 303.804 305.716C304.74 304.756 305.208 303.508 305.208 301.972V301.72C305.208 300.688 304.992 299.764 304.56 298.948C304.128 298.132 303.54 297.496 302.796 297.04C302.052 296.584 301.236 296.356 300.348 296.356C298.812 296.356 297.624 296.86 296.784 297.868C295.944 298.852 295.524 300.136 295.524 301.72C295.524 303.328 295.932 304.636 296.748 305.644C297.588 306.628 298.788 307.12 300.348 307.12ZM319.581 296.644H316.665V293.476H319.581V286.744L323.505 285.88V293.476H327.321V296.644H323.505V310H319.581V296.644ZM341.893 310.36C339.925 310.36 338.281 309.976 336.961 309.208C335.641 308.416 334.669 307.372 334.045 306.076C333.421 304.756 333.109 303.316 333.109 301.756C333.109 300.004 333.469 298.468 334.189 297.148C334.933 295.828 335.953 294.82 337.249 294.124C338.545 293.404 340.009 293.044 341.641 293.044C344.185 293.044 346.069 293.752 347.293 295.168C348.541 296.56 349.165 298.528 349.165 301.072C349.165 301.72 349.129 302.392 349.057 303.088H337.177C337.441 304.552 337.957 305.608 338.725 306.256C339.517 306.904 340.609 307.228 342.001 307.228C343.153 307.228 344.101 307.132 344.845 306.94C345.589 306.748 346.273 306.484 346.897 306.148L348.085 308.92C347.485 309.304 346.669 309.64 345.637 309.928C344.605 310.216 343.357 310.36 341.893 310.36ZM345.385 300.388C345.409 298.9 345.085 297.856 344.413 297.256C343.741 296.632 342.781 296.32 341.533 296.32C339.013 296.32 337.561 297.676 337.177 300.388H345.385ZM374.017 310.504L367.177 293.476H371.569L375.097 303.988L375.889 306.544L376.681 303.988L380.389 293.476H384.637L374.485 319.072H370.453L374.017 310.504ZM398.464 310.36C396.76 310.36 395.248 309.976 393.928 309.208C392.608 308.44 391.588 307.396 390.868 306.076C390.148 304.756 389.788 303.292 389.788 301.684C389.788 300.1 390.136 298.648 390.832 297.328C391.552 296.008 392.572 294.964 393.892 294.196C395.212 293.428 396.736 293.044 398.464 293.044C400.192 293.044 401.704 293.428 403 294.196C404.32 294.964 405.328 296.008 406.024 297.328C406.744 298.648 407.104 300.1 407.104 301.684C407.104 303.292 406.744 304.756 406.024 306.076C405.304 307.396 404.284 308.44 402.964 309.208C401.668 309.976 400.168 310.36 398.464 310.36ZM398.572 307.192C399.964 307.192 401.056 306.676 401.848 305.644C402.664 304.612 403.072 303.316 403.072 301.756C403.072 300.196 402.64 298.888 401.776 297.832C400.912 296.752 399.772 296.212 398.356 296.212C396.988 296.212 395.884 296.74 395.044 297.796C394.228 298.852 393.82 300.172 393.82 301.756C393.82 303.292 394.264 304.588 395.152 305.644C396.04 306.676 397.18 307.192 398.572 307.192ZM420.58 310.36C418.3 310.36 416.728 309.688 415.864 308.344C415.024 307 414.604 305.128 414.604 302.728V293.476H418.492V301.756C418.492 303.124 418.564 304.192 418.708 304.96C418.876 305.704 419.188 306.256 419.644 306.616C420.124 306.976 420.832 307.156 421.768 307.156C422.44 307.156 423.088 306.964 423.712 306.58C424.336 306.196 424.84 305.68 425.224 305.032C425.632 304.36 425.836 303.628 425.836 302.836V293.476H429.688V310H426.52L426.088 307.588C425.488 308.524 424.732 309.22 423.82 309.676C422.932 310.132 421.852 310.36 420.58 310.36ZM438.352 293.476H442.24V296.716C442.624 295.612 443.248 294.724 444.112 294.052C444.976 293.38 445.96 293.044 447.064 293.044C447.832 293.044 448.36 293.116 448.648 293.26L448.108 297.184C447.892 297.04 447.424 296.968 446.704 296.968C445.576 296.968 444.544 297.328 443.608 298.048C442.696 298.768 442.24 299.92 442.24 301.504V310H438.352V293.476ZM106.701 333.54H110.553V360H106.701V333.54ZM127.422 360.36C125.454 360.36 123.81 359.976 122.49 359.208C121.17 358.416 120.198 357.372 119.574 356.076C118.95 354.756 118.638 353.316 118.638 351.756C118.638 350.004 118.998 348.468 119.718 347.148C120.462 345.828 121.482 344.82 122.778 344.124C124.074 343.404 125.538 343.044 127.17 343.044C129.714 343.044 131.598 343.752 132.822 345.168C134.07 346.56 134.694 348.528 134.694 351.072C134.694 351.72 134.658 352.392 134.586 353.088H122.706C122.97 354.552 123.486 355.608 124.254 356.256C125.046 356.904 126.138 357.228 127.53 357.228C128.682 357.228 129.63 357.132 130.374 356.94C131.118 356.748 131.802 356.484 132.426 356.148L133.614 358.92C133.014 359.304 132.198 359.64 131.166 359.928C130.134 360.216 128.886 360.36 127.422 360.36ZM130.914 350.388C130.938 348.9 130.614 347.856 129.942 347.256C129.27 346.632 128.31 346.32 127.062 346.32C124.542 346.32 123.09 347.676 122.706 350.388H130.914ZM149.678 360.36C148.19 360.36 146.81 360.012 145.538 359.316C144.29 358.596 143.282 357.588 142.514 356.292C141.77 354.972 141.398 353.436 141.398 351.684C141.398 349.956 141.722 348.444 142.37 347.148C143.042 345.852 143.99 344.844 145.214 344.124C146.438 343.404 147.878 343.044 149.534 343.044C150.494 343.044 151.394 343.212 152.234 343.548C153.074 343.884 153.782 344.304 154.358 344.808C154.934 345.288 155.318 345.768 155.51 346.248L155.582 343.476H159.29V360H155.618L155.546 357.084C155.138 357.948 154.394 358.716 153.314 359.388C152.234 360.036 151.022 360.36 149.678 360.36ZM150.326 357.12C151.694 357.12 152.846 356.652 153.782 355.716C154.718 354.756 155.186 353.508 155.186 351.972V351.72C155.186 350.688 154.97 349.764 154.538 348.948C154.106 348.132 153.518 347.496 152.774 347.04C152.03 346.584 151.214 346.356 150.326 346.356C148.79 346.356 147.602 346.86 146.762 347.868C145.922 348.852 145.502 350.136 145.502 351.72C145.502 353.328 145.91 354.636 146.726 355.644C147.566 356.628 148.766 357.12 150.326 357.12ZM168.011 343.476H171.899V346.716C172.283 345.612 172.907 344.724 173.771 344.052C174.635 343.38 175.618 343.044 176.723 343.044C177.491 343.044 178.019 343.116 178.307 343.26L177.767 347.184C177.551 347.04 177.083 346.968 176.363 346.968C175.235 346.968 174.203 347.328 173.267 348.048C172.355 348.768 171.899 349.92 171.899 351.504V360H168.011V343.476ZM184.656 343.476H188.472L188.508 346.5C188.964 345.492 189.684 344.664 190.668 344.016C191.652 343.368 192.804 343.044 194.124 343.044C195.828 343.044 197.136 343.404 198.048 344.124C198.96 344.82 199.572 345.804 199.884 347.076C200.196 348.348 200.352 350.004 200.352 352.044V360H196.464V352.152C196.464 350.064 196.26 348.564 195.852 347.652C195.444 346.716 194.604 346.248 193.332 346.248C192.612 346.248 191.88 346.476 191.136 346.932C190.392 347.364 189.768 348 189.264 348.84C188.784 349.68 188.544 350.664 188.544 351.792V360H184.656V343.476ZM209.251 343.476H213.283V360H209.251V343.476ZM211.231 340.38C210.487 340.38 209.863 340.128 209.359 339.624C208.855 339.12 208.603 338.496 208.603 337.752C208.603 337.08 208.855 336.504 209.359 336.024C209.863 335.544 210.487 335.304 211.231 335.304C211.951 335.304 212.563 335.544 213.067 336.024C213.571 336.504 213.823 337.08 213.823 337.752C213.823 338.496 213.571 339.12 213.067 339.624C212.587 340.128 211.975 340.38 211.231 340.38ZM222.266 343.476H226.082L226.118 346.5C226.574 345.492 227.294 344.664 228.278 344.016C229.262 343.368 230.414 343.044 231.734 343.044C233.438 343.044 234.746 343.404 235.658 344.124C236.57 344.82 237.182 345.804 237.494 347.076C237.806 348.348 237.962 350.004 237.962 352.044V360H234.074V352.152C234.074 350.064 233.87 348.564 233.462 347.652C233.054 346.716 232.214 346.248 230.942 346.248C230.222 346.248 229.49 346.476 228.746 346.932C228.002 347.364 227.378 348 226.874 348.84C226.394 349.68 226.154 350.664 226.154 351.792V360H222.266V343.476ZM254.601 368.64C253.377 368.64 252.165 368.472 250.965 368.136C249.789 367.8 248.949 367.488 248.445 367.2L249.309 363.6C250.893 364.632 252.621 365.148 254.493 365.148C255.933 365.148 257.145 364.8 258.129 364.104C259.113 363.408 259.617 362.052 259.641 360.036V357.084C259.137 358.02 258.321 358.8 257.193 359.424C256.065 360.048 254.817 360.36 253.449 360.36C252.009 360.36 250.689 360.012 249.489 359.316C248.289 358.596 247.341 357.576 246.645 356.256C245.949 354.936 245.601 353.4 245.601 351.648C245.601 349.968 245.925 348.48 246.573 347.184C247.245 345.864 248.193 344.844 249.417 344.124C250.641 343.404 252.069 343.044 253.701 343.044C254.661 343.044 255.561 343.212 256.401 343.548C257.241 343.884 257.949 344.304 258.525 344.808C259.125 345.288 259.521 345.768 259.713 346.248L259.785 343.476H263.457V359.892C263.457 362.7 262.737 364.86 261.297 366.372C259.857 367.884 257.625 368.64 254.601 368.64ZM254.529 357.084C255.897 357.084 257.049 356.616 257.985 355.68C258.921 354.72 259.389 353.472 259.389 351.936V351.684C259.389 350.652 259.173 349.728 258.741 348.912C258.309 348.096 257.721 347.46 256.977 347.004C256.233 346.548 255.417 346.32 254.529 346.32C252.993 346.32 251.805 346.824 250.965 347.832C250.125 348.816 249.705 350.1 249.705 351.684C249.705 353.292 250.113 354.6 250.929 355.608C251.769 356.592 252.969 357.084 254.529 357.084ZM282.917 368.784C282.029 368.784 281.069 368.652 280.037 368.388L280.865 364.896C281.249 365.04 281.621 365.16 281.981 365.256C282.341 365.376 282.677 365.436 282.989 365.436C283.781 365.436 284.345 365.22 284.681 364.788C285.041 364.356 285.221 363.48 285.221 362.16V343.476H289.109V362.34C289.109 364.428 288.569 366.024 287.489 367.128C286.409 368.232 284.885 368.784 282.917 368.784ZM286.949 340.38C286.205 340.38 285.581 340.128 285.077 339.624C284.573 339.12 284.321 338.496 284.321 337.752C284.321 337.08 284.573 336.504 285.077 336.024C285.581 335.544 286.205 335.304 286.949 335.304C287.669 335.304 288.281 335.544 288.785 336.024C289.289 336.504 289.541 337.08 289.541 337.752C289.541 338.496 289.289 339.12 288.785 339.624C288.305 340.128 287.693 340.38 286.949 340.38ZM305.823 360.36C304.119 360.36 302.607 359.976 301.287 359.208C299.967 358.44 298.947 357.396 298.227 356.076C297.507 354.756 297.147 353.292 297.147 351.684C297.147 350.1 297.495 348.648 298.191 347.328C298.911 346.008 299.931 344.964 301.251 344.196C302.571 343.428 304.095 343.044 305.823 343.044C307.551 343.044 309.063 343.428 310.359 344.196C311.679 344.964 312.687 346.008 313.383 347.328C314.103 348.648 314.463 350.1 314.463 351.684C314.463 353.292 314.103 354.756 313.383 356.076C312.663 357.396 311.643 358.44 310.323 359.208C309.027 359.976 307.527 360.36 305.823 360.36ZM305.931 357.192C307.323 357.192 308.415 356.676 309.207 355.644C310.023 354.612 310.431 353.316 310.431 351.756C310.431 350.196 309.999 348.888 309.135 347.832C308.271 346.752 307.131 346.212 305.715 346.212C304.347 346.212 303.243 346.74 302.403 347.796C301.587 348.852 301.179 350.172 301.179 351.756C301.179 353.292 301.623 354.588 302.511 355.644C303.399 356.676 304.539 357.192 305.931 357.192ZM327.939 360.36C325.659 360.36 324.087 359.688 323.223 358.344C322.383 357 321.963 355.128 321.963 352.728V343.476H325.851V351.756C325.851 353.124 325.923 354.192 326.067 354.96C326.235 355.704 326.547 356.256 327.003 356.616C327.483 356.976 328.191 357.156 329.127 357.156C329.799 357.156 330.447 356.964 331.071 356.58C331.695 356.196 332.199 355.68 332.583 355.032C332.991 354.36 333.195 353.628 333.195 352.836V343.476H337.047V360H333.879L333.447 357.588C332.847 358.524 332.091 359.22 331.179 359.676C330.291 360.132 329.211 360.36 327.939 360.36ZM345.711 343.476H349.599V346.716C349.983 345.612 350.607 344.724 351.471 344.052C352.335 343.38 353.319 343.044 354.423 343.044C355.191 343.044 355.719 343.116 356.007 343.26L355.467 347.184C355.251 347.04 354.783 346.968 354.063 346.968C352.935 346.968 351.903 347.328 350.967 348.048C350.055 348.768 349.599 349.92 349.599 351.504V360H345.711V343.476ZM362.357 343.476H366.173L366.209 346.5C366.665 345.492 367.385 344.664 368.369 344.016C369.353 343.368 370.505 343.044 371.825 343.044C373.529 343.044 374.837 343.404 375.749 344.124C376.661 344.82 377.273 345.804 377.585 347.076C377.897 348.348 378.053 350.004 378.053 352.044V360H374.165V352.152C374.165 350.064 373.961 348.564 373.553 347.652C373.145 346.716 372.305 346.248 371.033 346.248C370.313 346.248 369.581 346.476 368.837 346.932C368.093 347.364 367.469 348 366.965 348.84C366.485 349.68 366.245 350.664 366.245 351.792V360H362.357V343.476ZM394.476 360.36C392.508 360.36 390.864 359.976 389.544 359.208C388.224 358.416 387.252 357.372 386.628 356.076C386.004 354.756 385.692 353.316 385.692 351.756C385.692 350.004 386.052 348.468 386.772 347.148C387.516 345.828 388.536 344.82 389.832 344.124C391.128 343.404 392.592 343.044 394.224 343.044C396.768 343.044 398.652 343.752 399.876 345.168C401.124 346.56 401.748 348.528 401.748 351.072C401.748 351.72 401.712 352.392 401.64 353.088H389.76C390.024 354.552 390.54 355.608 391.308 356.256C392.1 356.904 393.192 357.228 394.584 357.228C395.736 357.228 396.684 357.132 397.428 356.94C398.172 356.748 398.856 356.484 399.48 356.148L400.668 358.92C400.068 359.304 399.252 359.64 398.22 359.928C397.188 360.216 395.94 360.36 394.476 360.36ZM397.968 350.388C397.992 348.9 397.668 347.856 396.996 347.256C396.324 346.632 395.364 346.32 394.116 346.32C391.596 346.32 390.144 347.676 389.76 350.388H397.968ZM414.176 360.504L407.336 343.476H411.728L415.256 353.988L416.048 356.544L416.84 353.988L420.548 343.476H424.796L414.644 369.072H410.612L414.176 360.504ZM453.423 350.82L448.527 360H447.843L440.895 343.476H445.071L448.635 353.088L453.351 343.476H453.495L458.247 353.016L461.811 343.476H465.915L459.003 360H458.319L453.423 350.82ZM472.473 343.476H476.505V360H472.473V343.476ZM474.453 340.38C473.709 340.38 473.085 340.128 472.581 339.624C472.077 339.12 471.825 338.496 471.825 337.752C471.825 337.08 472.077 336.504 472.581 336.024C473.085 335.544 473.709 335.304 474.453 335.304C475.173 335.304 475.785 335.544 476.289 336.024C476.793 336.504 477.045 337.08 477.045 337.752C477.045 338.496 476.793 339.12 476.289 339.624C475.809 340.128 475.197 340.38 474.453 340.38ZM486.928 346.644H484.012V343.476H486.928V336.744L490.852 335.88V343.476H494.668V346.644H490.852V360H486.928V346.644ZM501.608 333.54H505.388V343.476L505.244 346.536C505.7 345.528 506.432 344.7 507.44 344.052C508.448 343.38 509.624 343.044 510.968 343.044C512.672 343.044 513.98 343.404 514.892 344.124C515.804 344.82 516.416 345.804 516.728 347.076C517.04 348.348 517.196 350.004 517.196 352.044V360H513.344V352.008C513.344 350.616 513.26 349.524 513.092 348.732C512.948 347.94 512.636 347.34 512.156 346.932C511.7 346.524 511.028 346.32 510.14 346.32C509.42 346.32 508.688 346.536 507.944 346.968C507.224 347.4 506.624 348.036 506.144 348.876C505.664 349.692 505.424 350.664 505.424 351.792V360H501.608V333.54ZM179.356 410.36C177.652 410.36 176.14 409.976 174.82 409.208C173.5 408.44 172.48 407.396 171.76 406.076C171.04 404.756 170.68 403.292 170.68 401.684C170.68 400.1 171.028 398.648 171.724 397.328C172.444 396.008 173.464 394.964 174.784 394.196C176.104 393.428 177.628 393.044 179.356 393.044C181.084 393.044 182.596 393.428 183.892 394.196C185.212 394.964 186.22 396.008 186.916 397.328C187.636 398.648 187.996 400.1 187.996 401.684C187.996 403.292 187.636 404.756 186.916 406.076C186.196 407.396 185.176 408.44 183.856 409.208C182.56 409.976 181.06 410.36 179.356 410.36ZM179.464 407.192C180.856 407.192 181.948 406.676 182.74 405.644C183.556 404.612 183.964 403.316 183.964 401.756C183.964 400.196 183.532 398.888 182.668 397.832C181.804 396.752 180.664 396.212 179.248 396.212C177.88 396.212 176.776 396.74 175.936 397.796C175.12 398.852 174.712 400.172 174.712 401.756C174.712 403.292 175.156 404.588 176.044 405.644C176.932 406.676 178.072 407.192 179.464 407.192ZM201.472 410.36C199.192 410.36 197.62 409.688 196.756 408.344C195.916 407 195.496 405.128 195.496 402.728V393.476H199.384V401.756C199.384 403.124 199.456 404.192 199.6 404.96C199.768 405.704 200.08 406.256 200.536 406.616C201.016 406.976 201.724 407.156 202.66 407.156C203.332 407.156 203.98 406.964 204.604 406.58C205.228 406.196 205.732 405.68 206.116 405.032C206.524 404.36 206.728 403.628 206.728 402.836V393.476H210.58V410H207.412L206.98 407.588C206.38 408.524 205.624 409.22 204.712 409.676C203.824 410.132 202.744 410.36 201.472 410.36ZM219.244 393.476H223.132V396.716C223.516 395.612 224.14 394.724 225.004 394.052C225.868 393.38 226.852 393.044 227.956 393.044C228.724 393.044 229.252 393.116 229.54 393.26L229 397.184C228.784 397.04 228.316 396.968 227.596 396.968C226.468 396.968 225.436 397.328 224.5 398.048C223.588 398.768 223.132 399.92 223.132 401.504V410H219.244V393.476ZM248.601 393.476H252.633V410H248.601V393.476ZM250.581 390.38C249.837 390.38 249.213 390.128 248.709 389.624C248.205 389.12 247.953 388.496 247.953 387.752C247.953 387.08 248.205 386.504 248.709 386.024C249.213 385.544 249.837 385.304 250.581 385.304C251.301 385.304 251.913 385.544 252.417 386.024C252.921 386.504 253.173 387.08 253.173 387.752C253.173 388.496 252.921 389.12 252.417 389.624C251.937 390.128 251.325 390.38 250.581 390.38ZM261.617 393.476H265.433L265.469 396.5C265.925 395.492 266.645 394.664 267.629 394.016C268.613 393.368 269.765 393.044 271.085 393.044C272.789 393.044 274.097 393.404 275.009 394.124C275.921 394.82 276.533 395.804 276.845 397.076C277.157 398.348 277.313 400.004 277.313 402.044V410H273.425V402.152C273.425 400.064 273.221 398.564 272.813 397.652C272.405 396.716 271.565 396.248 270.293 396.248C269.573 396.248 268.841 396.476 268.097 396.932C267.353 397.364 266.729 398 266.225 398.84C265.745 399.68 265.505 400.664 265.505 401.792V410H261.617V393.476ZM287.364 396.644H284.448V393.476H287.364V386.744L291.288 385.88V393.476H295.104V396.644H291.288V410H287.364V396.644ZM309.675 410.36C307.707 410.36 306.063 409.976 304.743 409.208C303.423 408.416 302.451 407.372 301.827 406.076C301.203 404.756 300.891 403.316 300.891 401.756C300.891 400.004 301.251 398.468 301.971 397.148C302.715 395.828 303.735 394.82 305.031 394.124C306.327 393.404 307.791 393.044 309.423 393.044C311.967 393.044 313.851 393.752 315.075 395.168C316.323 396.56 316.947 398.528 316.947 401.072C316.947 401.72 316.911 402.392 316.839 403.088H304.959C305.223 404.552 305.739 405.608 306.507 406.256C307.299 406.904 308.391 407.228 309.783 407.228C310.935 407.228 311.883 407.132 312.627 406.94C313.371 406.748 314.055 406.484 314.679 406.148L315.867 408.92C315.267 409.304 314.451 409.64 313.419 409.928C312.387 410.216 311.139 410.36 309.675 410.36ZM313.167 400.388C313.191 398.9 312.867 397.856 312.195 397.256C311.523 396.632 310.563 396.32 309.315 396.32C306.795 396.32 305.343 397.676 304.959 400.388H313.167ZM324.516 393.476H328.404V396.716C328.788 395.612 329.412 394.724 330.276 394.052C331.14 393.38 332.124 393.044 333.228 393.044C333.996 393.044 334.524 393.116 334.812 393.26L334.272 397.184C334.056 397.04 333.588 396.968 332.868 396.968C331.74 396.968 330.708 397.328 329.772 398.048C328.86 398.768 328.404 399.92 328.404 401.504V410H324.516V393.476ZM348.469 410.36C346.981 410.36 345.601 410.012 344.329 409.316C343.081 408.596 342.073 407.588 341.305 406.292C340.561 404.972 340.189 403.436 340.189 401.684C340.189 399.956 340.513 398.444 341.161 397.148C341.833 395.852 342.781 394.844 344.005 394.124C345.229 393.404 346.669 393.044 348.325 393.044C349.285 393.044 350.185 393.212 351.025 393.548C351.865 393.884 352.573 394.304 353.149 394.808C353.725 395.288 354.109 395.768 354.301 396.248L354.373 393.476H358.081V410H354.409L354.337 407.084C353.929 407.948 353.185 408.716 352.105 409.388C351.025 410.036 349.813 410.36 348.469 410.36ZM349.117 407.12C350.485 407.12 351.637 406.652 352.573 405.716C353.509 404.756 353.977 403.508 353.977 401.972V401.72C353.977 400.688 353.761 399.764 353.329 398.948C352.897 398.132 352.309 397.496 351.565 397.04C350.821 396.584 350.005 396.356 349.117 396.356C347.581 396.356 346.393 396.86 345.553 397.868C344.713 398.852 344.293 400.136 344.293 401.72C344.293 403.328 344.701 404.636 345.517 405.644C346.357 406.628 347.557 407.12 349.117 407.12ZM374.614 410.36C372.982 410.36 371.506 410.012 370.186 409.316C368.89 408.596 367.858 407.576 367.09 406.256C366.322 404.912 365.938 403.34 365.938 401.54C365.938 399.836 366.286 398.348 366.982 397.076C367.702 395.78 368.698 394.784 369.97 394.088C371.266 393.392 372.754 393.044 374.434 393.044C375.706 393.044 376.798 393.212 377.71 393.548C378.646 393.86 379.378 394.256 379.906 394.736L378.178 397.868C377.17 396.86 376.03 396.356 374.758 396.356C373.222 396.356 372.046 396.824 371.23 397.76C370.438 398.696 370.042 399.944 370.042 401.504C370.042 403.28 370.45 404.66 371.266 405.644C372.106 406.628 373.27 407.12 374.758 407.12C375.502 407.12 376.222 407.012 376.918 406.796C377.638 406.58 378.19 406.328 378.574 406.04L379.978 408.776C379.45 409.184 378.706 409.556 377.746 409.892C376.81 410.204 375.766 410.36 374.614 410.36ZM388.719 396.644H385.803V393.476H388.719V386.744L392.643 385.88V393.476H396.459V396.644H392.643V410H388.719V396.644ZM403.507 393.476H407.539V410H403.507V393.476ZM405.487 390.38C404.743 390.38 404.119 390.128 403.615 389.624C403.111 389.12 402.859 388.496 402.859 387.752C402.859 387.08 403.111 386.504 403.615 386.024C404.119 385.544 404.743 385.304 405.487 385.304C406.207 385.304 406.819 385.544 407.323 386.024C407.827 386.504 408.079 387.08 408.079 387.752C408.079 388.496 407.827 389.12 407.323 389.624C406.843 390.128 406.231 390.38 405.487 390.38ZM413.894 393.476H418.322L421.886 400.928L423.038 403.916L424.19 400.928L427.718 393.476H432.038L423.362 410H422.606L413.894 393.476ZM445.512 410.36C443.544 410.36 441.9 409.976 440.58 409.208C439.26 408.416 438.288 407.372 437.664 406.076C437.04 404.756 436.728 403.316 436.728 401.756C436.728 400.004 437.088 398.468 437.808 397.148C438.552 395.828 439.572 394.82 440.868 394.124C442.164 393.404 443.628 393.044 445.26 393.044C447.804 393.044 449.688 393.752 450.912 395.168C452.16 396.56 452.784 398.528 452.784 401.072C452.784 401.72 452.748 402.392 452.676 403.088H440.796C441.06 404.552 441.576 405.608 442.344 406.256C443.136 406.904 444.228 407.228 445.62 407.228C446.772 407.228 447.72 407.132 448.464 406.94C449.208 406.748 449.892 406.484 450.516 406.148L451.704 408.92C451.104 409.304 450.288 409.64 449.256 409.928C448.224 410.216 446.976 410.36 445.512 410.36ZM449.004 400.388C449.028 398.9 448.704 397.856 448.032 397.256C447.36 396.632 446.4 396.32 445.152 396.32C442.632 396.32 441.18 397.676 440.796 400.388H449.004ZM107.349 460.36C105.717 460.36 104.241 460.012 102.921 459.316C101.625 458.596 100.593 457.576 99.8247 456.256C99.0567 454.912 98.6727 453.34 98.6727 451.54C98.6727 449.836 99.0207 448.348 99.7167 447.076C100.437 445.78 101.433 444.784 102.705 444.088C104.001 443.392 105.489 443.044 107.169 443.044C108.441 443.044 109.533 443.212 110.445 443.548C111.381 443.86 112.113 444.256 112.641 444.736L110.913 447.868C109.905 446.86 108.765 446.356 107.493 446.356C105.957 446.356 104.781 446.824 103.965 447.76C103.173 448.696 102.777 449.944 102.777 451.504C102.777 453.28 103.185 454.66 104.001 455.644C104.841 456.628 106.005 457.12 107.493 457.12C108.237 457.12 108.957 457.012 109.653 456.796C110.373 456.58 110.925 456.328 111.309 456.04L112.713 458.776C112.185 459.184 111.441 459.556 110.481 459.892C109.545 460.204 108.501 460.36 107.349 460.36ZM120.194 433.54H123.974V443.476L123.83 446.536C124.286 445.528 125.018 444.7 126.026 444.052C127.034 443.38 128.21 443.044 129.554 443.044C131.258 443.044 132.566 443.404 133.478 444.124C134.39 444.82 135.002 445.804 135.314 447.076C135.626 448.348 135.782 450.004 135.782 452.044V460H131.93V452.008C131.93 450.616 131.846 449.524 131.678 448.732C131.534 447.94 131.222 447.34 130.742 446.932C130.286 446.524 129.614 446.32 128.726 446.32C128.006 446.32 127.274 446.536 126.53 446.968C125.81 447.4 125.21 448.036 124.73 448.876C124.25 449.692 124.01 450.664 124.01 451.792V460H120.194V433.54ZM151.629 460.36C150.141 460.36 148.761 460.012 147.489 459.316C146.241 458.596 145.233 457.588 144.465 456.292C143.721 454.972 143.349 453.436 143.349 451.684C143.349 449.956 143.673 448.444 144.321 447.148C144.993 445.852 145.941 444.844 147.165 444.124C148.389 443.404 149.829 443.044 151.485 443.044C152.445 443.044 153.345 443.212 154.185 443.548C155.025 443.884 155.733 444.304 156.309 444.808C156.885 445.288 157.269 445.768 157.461 446.248L157.533 443.476H161.241V460H157.569L157.497 457.084C157.089 457.948 156.345 458.716 155.265 459.388C154.185 460.036 152.973 460.36 151.629 460.36ZM152.277 457.12C153.645 457.12 154.797 456.652 155.733 455.716C156.669 454.756 157.137 453.508 157.137 451.972V451.72C157.137 450.688 156.921 449.764 156.489 448.948C156.057 448.132 155.469 447.496 154.725 447.04C153.981 446.584 153.165 446.356 152.277 446.356C150.741 446.356 149.553 446.86 148.713 447.868C147.873 448.852 147.453 450.136 147.453 451.72C147.453 453.328 147.861 454.636 148.677 455.644C149.517 456.628 150.717 457.12 152.277 457.12ZM171.51 446.644H168.594V443.476H171.51V436.744L175.434 435.88V443.476H179.25V446.644H175.434V460H171.51V446.644ZM195.802 460.36C194.458 460.36 193.246 460.036 192.166 459.388C191.11 458.716 190.378 457.948 189.97 457.084L189.898 460H186.154V433.54H189.97V443.728L189.79 446.536C190.198 445.576 190.99 444.76 192.166 444.088C193.366 443.392 194.662 443.044 196.054 443.044C197.686 443.044 199.102 443.416 200.302 444.16C201.526 444.88 202.462 445.9 203.11 447.22C203.758 448.516 204.082 450.028 204.082 451.756C204.082 453.508 203.698 455.032 202.93 456.328C202.186 457.624 201.178 458.62 199.906 459.316C198.658 460.012 197.29 460.36 195.802 460.36ZM195.154 457.12C196.714 457.12 197.914 456.628 198.754 455.644C199.594 454.636 200.014 453.34 200.014 451.756C200.014 450.148 199.594 448.852 198.754 447.868C197.938 446.86 196.738 446.356 195.154 446.356C193.786 446.356 192.634 446.836 191.698 447.796C190.762 448.732 190.294 449.968 190.294 451.504V451.756C190.294 452.788 190.51 453.712 190.942 454.528C191.398 455.344 191.986 455.98 192.706 456.436C193.45 456.892 194.266 457.12 195.154 457.12ZM219.532 460.36C217.828 460.36 216.316 459.976 214.996 459.208C213.676 458.44 212.656 457.396 211.936 456.076C211.216 454.756 210.856 453.292 210.856 451.684C210.856 450.1 211.204 448.648 211.9 447.328C212.62 446.008 213.64 444.964 214.96 444.196C216.28 443.428 217.804 443.044 219.532 443.044C221.26 443.044 222.772 443.428 224.068 444.196C225.388 444.964 226.396 446.008 227.092 447.328C227.812 448.648 228.172 450.1 228.172 451.684C228.172 453.292 227.812 454.756 227.092 456.076C226.372 457.396 225.352 458.44 224.032 459.208C222.736 459.976 221.236 460.36 219.532 460.36ZM219.64 457.192C221.032 457.192 222.124 456.676 222.916 455.644C223.732 454.612 224.14 453.316 224.14 451.756C224.14 450.196 223.708 448.888 222.844 447.832C221.98 446.752 220.84 446.212 219.424 446.212C218.056 446.212 216.952 446.74 216.112 447.796C215.296 448.852 214.888 450.172 214.888 451.756C214.888 453.292 215.332 454.588 216.22 455.644C217.108 456.676 218.248 457.192 219.64 457.192ZM237.364 446.644H234.448V443.476H237.364V436.744L241.288 435.88V443.476H245.104V446.644H241.288V460H237.364V446.644ZM253.825 460.36C253.105 460.36 252.493 460.12 251.989 459.64C251.485 459.136 251.233 458.524 251.233 457.804C251.233 457.06 251.473 456.448 251.953 455.968C252.457 455.464 253.081 455.212 253.825 455.212C254.569 455.212 255.181 455.464 255.661 455.968C256.165 456.448 256.417 457.06 256.417 457.804C256.417 458.524 256.165 459.136 255.661 459.64C255.181 460.12 254.569 460.36 253.825 460.36ZM290.262 460.36C287.646 460.36 285.306 459.76 283.242 458.56C281.178 457.36 279.558 455.716 278.382 453.628C277.23 451.516 276.654 449.152 276.654 446.536C276.654 443.992 277.242 441.7 278.418 439.66C279.594 437.62 281.226 436.024 283.314 434.872C285.402 433.72 287.754 433.144 290.37 433.144C291.786 433.144 293.058 433.276 294.186 433.54C295.338 433.78 296.274 434.068 296.994 434.404C297.714 434.716 298.206 434.992 298.47 435.232L296.886 438.616C295.398 437.416 293.202 436.816 290.298 436.816C288.378 436.816 286.71 437.236 285.294 438.076C283.878 438.916 282.798 440.056 282.054 441.496C281.31 442.936 280.938 444.544 280.938 446.32C280.938 448.336 281.334 450.136 282.126 451.72C282.942 453.304 284.058 454.54 285.474 455.428C286.914 456.292 288.534 456.724 290.334 456.724C291.462 456.724 292.542 456.592 293.574 456.328C294.606 456.04 295.482 455.596 296.202 454.996V449.884H290.766V446.176H300.198V456.544C299.334 457.624 298.026 458.536 296.274 459.28C294.546 460 292.542 460.36 290.262 460.36ZM315.863 460.36C313.895 460.36 312.251 459.976 310.931 459.208C309.611 458.416 308.639 457.372 308.015 456.076C307.391 454.756 307.079 453.316 307.079 451.756C307.079 450.004 307.439 448.468 308.159 447.148C308.903 445.828 309.923 444.82 311.219 444.124C312.515 443.404 313.979 443.044 315.611 443.044C318.155 443.044 320.039 443.752 321.263 445.168C322.511 446.56 323.135 448.528 323.135 451.072C323.135 451.72 323.099 452.392 323.027 453.088H311.147C311.411 454.552 311.927 455.608 312.695 456.256C313.487 456.904 314.579 457.228 315.971 457.228C317.123 457.228 318.071 457.132 318.815 456.94C319.559 456.748 320.243 456.484 320.867 456.148L322.055 458.92C321.455 459.304 320.639 459.64 319.607 459.928C318.575 460.216 317.327 460.36 315.863 460.36ZM319.355 450.388C319.379 448.9 319.055 447.856 318.383 447.256C317.711 446.632 316.751 446.32 315.503 446.32C312.983 446.32 311.531 447.676 311.147 450.388H319.355ZM332.251 446.644H329.335V443.476H332.251V436.744L336.175 435.88V443.476H339.991V446.644H336.175V460H332.251V446.644ZM366.879 460.36C365.247 460.36 363.771 460.012 362.451 459.316C361.155 458.596 360.123 457.576 359.355 456.256C358.587 454.912 358.203 453.34 358.203 451.54C358.203 449.836 358.551 448.348 359.247 447.076C359.967 445.78 360.963 444.784 362.235 444.088C363.531 443.392 365.019 443.044 366.699 443.044C367.971 443.044 369.063 443.212 369.975 443.548C370.911 443.86 371.643 444.256 372.171 444.736L370.443 447.868C369.435 446.86 368.295 446.356 367.023 446.356C365.487 446.356 364.311 446.824 363.495 447.76C362.703 448.696 362.307 449.944 362.307 451.504C362.307 453.28 362.715 454.66 363.531 455.644C364.371 456.628 365.535 457.12 367.023 457.12C367.767 457.12 368.487 457.012 369.183 456.796C369.903 456.58 370.455 456.328 370.839 456.04L372.243 458.776C371.715 459.184 370.971 459.556 370.011 459.892C369.075 460.204 368.031 460.36 366.879 460.36ZM387.249 460.36C385.545 460.36 384.033 459.976 382.713 459.208C381.393 458.44 380.373 457.396 379.653 456.076C378.933 454.756 378.573 453.292 378.573 451.684C378.573 450.1 378.921 448.648 379.617 447.328C380.337 446.008 381.357 444.964 382.677 444.196C383.997 443.428 385.521 443.044 387.249 443.044C388.977 443.044 390.489 443.428 391.785 444.196C393.105 444.964 394.113 446.008 394.809 447.328C395.529 448.648 395.889 450.1 395.889 451.684C395.889 453.292 395.529 454.756 394.809 456.076C394.089 457.396 393.069 458.44 391.749 459.208C390.453 459.976 388.953 460.36 387.249 460.36ZM387.357 457.192C388.749 457.192 389.841 456.676 390.633 455.644C391.449 454.612 391.857 453.316 391.857 451.756C391.857 450.196 391.425 448.888 390.561 447.832C389.697 446.752 388.557 446.212 387.141 446.212C385.773 446.212 384.669 446.74 383.829 447.796C383.013 448.852 382.605 450.172 382.605 451.756C382.605 453.292 383.049 454.588 383.937 455.644C384.825 456.676 385.965 457.192 387.357 457.192ZM403.641 443.476H407.457L407.493 446.5C407.949 445.492 408.669 444.664 409.653 444.016C410.637 443.368 411.789 443.044 413.109 443.044C414.813 443.044 416.121 443.404 417.033 444.124C417.945 444.82 418.557 445.804 418.869 447.076C419.181 448.348 419.337 450.004 419.337 452.044V460H415.449V452.152C415.449 450.064 415.245 448.564 414.837 447.652C414.429 446.716 413.589 446.248 412.317 446.248C411.597 446.248 410.865 446.476 410.121 446.932C409.377 447.364 408.753 448 408.249 448.84C407.769 449.68 407.529 450.664 407.529 451.792V460H403.641V443.476ZM435.652 460.36C434.02 460.36 432.544 460.012 431.224 459.316C429.928 458.596 428.896 457.576 428.128 456.256C427.36 454.912 426.976 453.34 426.976 451.54C426.976 449.836 427.324 448.348 428.02 447.076C428.74 445.78 429.736 444.784 431.008 444.088C432.304 443.392 433.792 443.044 435.472 443.044C436.744 443.044 437.836 443.212 438.748 443.548C439.684 443.86 440.416 444.256 440.944 444.736L439.216 447.868C438.208 446.86 437.068 446.356 435.796 446.356C434.26 446.356 433.084 446.824 432.268 447.76C431.476 448.696 431.08 449.944 431.08 451.504C431.08 453.28 431.488 454.66 432.304 455.644C433.144 456.628 434.308 457.12 435.796 457.12C436.54 457.12 437.26 457.012 437.956 456.796C438.676 456.58 439.228 456.328 439.612 456.04L441.016 458.776C440.488 459.184 439.744 459.556 438.784 459.892C437.848 460.204 436.804 460.36 435.652 460.36ZM456.129 460.36C454.161 460.36 452.517 459.976 451.197 459.208C449.877 458.416 448.905 457.372 448.281 456.076C447.657 454.756 447.345 453.316 447.345 451.756C447.345 450.004 447.705 448.468 448.425 447.148C449.169 445.828 450.189 444.82 451.485 444.124C452.781 443.404 454.245 443.044 455.877 443.044C458.421 443.044 460.305 443.752 461.529 445.168C462.777 446.56 463.401 448.528 463.401 451.072C463.401 451.72 463.365 452.392 463.293 453.088H451.413C451.677 454.552 452.193 455.608 452.961 456.256C453.753 456.904 454.845 457.228 456.237 457.228C457.389 457.228 458.337 457.132 459.081 456.94C459.825 456.748 460.509 456.484 461.133 456.148L462.321 458.92C461.721 459.304 460.905 459.64 459.873 459.928C458.841 460.216 457.593 460.36 456.129 460.36ZM459.621 450.388C459.645 448.9 459.321 447.856 458.649 447.256C457.977 446.632 457.017 446.32 455.769 446.32C453.249 446.32 451.797 447.676 451.413 450.388H459.621ZM471.149 443.476H474.893V446.536C476.213 444.208 478.277 443.044 481.085 443.044C483.413 443.044 485.297 443.788 486.737 445.276C488.177 446.74 488.897 448.864 488.897 451.648C488.897 453.376 488.537 454.9 487.817 456.22C487.121 457.54 486.161 458.56 484.937 459.28C483.737 460 482.393 460.36 480.905 460.36C479.513 460.36 478.301 460.12 477.269 459.64C476.261 459.136 475.469 458.428 474.893 457.516L474.929 468.748H471.149V443.476ZM480.005 457.084C481.565 457.084 482.765 456.592 483.605 455.608C484.445 454.6 484.865 453.316 484.865 451.756C484.865 450.124 484.445 448.828 483.605 447.868C482.789 446.884 481.589 446.392 480.005 446.392C479.141 446.392 478.325 446.608 477.557 447.04C476.813 447.448 476.213 448.048 475.757 448.84C475.325 449.608 475.109 450.508 475.109 451.54V451.792C475.109 452.824 475.325 453.748 475.757 454.564C476.213 455.356 476.813 455.98 477.557 456.436C478.301 456.868 479.117 457.084 480.005 457.084ZM498.09 446.644H495.174V443.476H498.09V436.744L502.014 435.88V443.476H505.83V446.644H502.014V460H498.09V446.644ZM518.278 460.36C517.126 460.36 515.926 460.216 514.678 459.928C513.454 459.616 512.578 459.256 512.05 458.848L513.346 455.788C514.786 456.796 516.43 457.3 518.278 457.3C520.126 457.3 521.05 456.76 521.05 455.68C521.05 455.2 520.858 454.828 520.474 454.564C520.09 454.3 519.406 453.988 518.422 453.628L517.054 453.124C515.614 452.548 514.474 451.864 513.634 451.072C512.794 450.256 512.374 449.188 512.374 447.868C512.374 446.356 512.962 445.18 514.138 444.34C515.338 443.476 516.934 443.044 518.926 443.044C519.91 443.044 520.87 443.152 521.806 443.368C522.766 443.584 523.498 443.86 524.002 444.196L522.598 447.292C522.286 446.98 521.782 446.716 521.086 446.5C520.414 446.26 519.658 446.14 518.818 446.14C517.114 446.14 516.262 446.656 516.262 447.688C516.262 448.264 516.49 448.708 516.946 449.02C517.402 449.308 518.146 449.632 519.178 449.992C519.274 450.016 519.646 450.148 520.294 450.388C521.83 450.988 522.97 451.672 523.714 452.44C524.458 453.208 524.83 454.192 524.83 455.392C524.83 457.024 524.206 458.26 522.958 459.1C521.734 459.94 520.174 460.36 518.278 460.36ZM190.364 510.36C188.876 510.36 187.496 510.012 186.224 509.316C184.976 508.596 183.968 507.588 183.2 506.292C182.456 504.972 182.084 503.436 182.084 501.684C182.084 499.956 182.408 498.444 183.056 497.148C183.728 495.852 184.676 494.844 185.9 494.124C187.124 493.404 188.564 493.044 190.22 493.044C191.18 493.044 192.08 493.212 192.92 493.548C193.76 493.884 194.468 494.304 195.044 494.808C195.62 495.288 196.004 495.768 196.196 496.248L196.268 493.476H199.976V510H196.304L196.232 507.084C195.824 507.948 195.08 508.716 194 509.388C192.92 510.036 191.708 510.36 190.364 510.36ZM191.012 507.12C192.38 507.12 193.532 506.652 194.468 505.716C195.404 504.756 195.872 503.508 195.872 501.972V501.72C195.872 500.688 195.656 499.764 195.224 498.948C194.792 498.132 194.204 497.496 193.46 497.04C192.716 496.584 191.9 496.356 191.012 496.356C189.476 496.356 188.288 496.86 187.448 497.868C186.608 498.852 186.188 500.136 186.188 501.72C186.188 503.328 186.596 504.636 187.412 505.644C188.252 506.628 189.452 507.12 191.012 507.12ZM208.805 493.476H212.621L212.657 496.5C213.113 495.492 213.833 494.664 214.817 494.016C215.801 493.368 216.953 493.044 218.273 493.044C219.977 493.044 221.285 493.404 222.197 494.124C223.109 494.82 223.721 495.804 224.033 497.076C224.345 498.348 224.501 500.004 224.501 502.044V510H220.613V502.152C220.613 500.064 220.409 498.564 220.001 497.652C219.593 496.716 218.753 496.248 217.481 496.248C216.761 496.248 216.029 496.476 215.285 496.932C214.541 497.364 213.917 498 213.413 498.84C212.933 499.68 212.693 500.664 212.693 501.792V510H208.805V493.476ZM240.42 510.36C238.932 510.36 237.552 510.012 236.28 509.316C235.032 508.596 234.024 507.588 233.256 506.292C232.512 504.972 232.14 503.436 232.14 501.684C232.14 499.068 232.872 496.98 234.336 495.42C235.8 493.836 237.78 493.044 240.276 493.044C241.668 493.044 242.94 493.392 244.092 494.088C245.244 494.76 246.024 495.576 246.432 496.536L246.252 493.728V483.54H250.068V510H246.36L246.288 507.084C245.88 507.948 245.136 508.716 244.056 509.388C242.976 510.036 241.764 510.36 240.42 510.36ZM241.068 507.084C242.436 507.084 243.588 506.616 244.524 505.68C245.46 504.72 245.928 503.472 245.928 501.936V501.684C245.928 500.652 245.712 499.728 245.28 498.912C244.848 498.096 244.26 497.46 243.516 497.004C242.772 496.548 241.956 496.32 241.068 496.32C239.532 496.32 238.344 496.824 237.504 497.832C236.664 498.816 236.244 500.1 236.244 501.684C236.244 503.292 236.652 504.6 237.468 505.608C238.308 506.592 239.508 507.084 241.068 507.084ZM279.061 510.36C277.093 510.36 275.449 509.976 274.129 509.208C272.809 508.416 271.837 507.372 271.213 506.076C270.589 504.756 270.277 503.316 270.277 501.756C270.277 500.004 270.637 498.468 271.357 497.148C272.101 495.828 273.121 494.82 274.417 494.124C275.713 493.404 277.177 493.044 278.809 493.044C281.353 493.044 283.237 493.752 284.461 495.168C285.709 496.56 286.333 498.528 286.333 501.072C286.333 501.72 286.297 502.392 286.225 503.088H274.345C274.609 504.552 275.125 505.608 275.893 506.256C276.685 506.904 277.777 507.228 279.169 507.228C280.321 507.228 281.269 507.132 282.013 506.94C282.757 506.748 283.441 506.484 284.065 506.148L285.253 508.92C284.653 509.304 283.837 509.64 282.805 509.928C281.773 510.216 280.525 510.36 279.061 510.36ZM282.553 500.388C282.577 498.9 282.253 497.856 281.581 497.256C280.909 496.632 279.949 496.32 278.701 496.32C276.181 496.32 274.729 497.676 274.345 500.388H282.553ZM299.698 510.36C298.546 510.36 297.346 510.216 296.098 509.928C294.874 509.616 293.998 509.256 293.47 508.848L294.766 505.788C296.206 506.796 297.85 507.3 299.698 507.3C301.546 507.3 302.47 506.76 302.47 505.68C302.47 505.2 302.278 504.828 301.894 504.564C301.51 504.3 300.826 503.988 299.842 503.628L298.474 503.124C297.034 502.548 295.894 501.864 295.054 501.072C294.214 500.256 293.794 499.188 293.794 497.868C293.794 496.356 294.382 495.18 295.558 494.34C296.758 493.476 298.354 493.044 300.346 493.044C301.33 493.044 302.29 493.152 303.226 493.368C304.186 493.584 304.918 493.86 305.422 494.196L304.018 497.292C303.706 496.98 303.202 496.716 302.506 496.5C301.834 496.26 301.078 496.14 300.238 496.14C298.534 496.14 297.682 496.656 297.682 497.688C297.682 498.264 297.91 498.708 298.366 499.02C298.822 499.308 299.566 499.632 300.598 499.992C300.694 500.016 301.066 500.148 301.714 500.388C303.25 500.988 304.39 501.672 305.134 502.44C305.878 503.208 306.25 504.192 306.25 505.392C306.25 507.024 305.626 508.26 304.378 509.1C303.154 509.94 301.594 510.36 299.698 510.36ZM319.575 510.36C318.423 510.36 317.223 510.216 315.975 509.928C314.751 509.616 313.875 509.256 313.347 508.848L314.643 505.788C316.083 506.796 317.727 507.3 319.575 507.3C321.423 507.3 322.347 506.76 322.347 505.68C322.347 505.2 322.155 504.828 321.771 504.564C321.387 504.3 320.703 503.988 319.719 503.628L318.351 503.124C316.911 502.548 315.771 501.864 314.931 501.072C314.091 500.256 313.671 499.188 313.671 497.868C313.671 496.356 314.259 495.18 315.435 494.34C316.635 493.476 318.231 493.044 320.223 493.044C321.207 493.044 322.167 493.152 323.103 493.368C324.063 493.584 324.795 493.86 325.299 494.196L323.895 497.292C323.583 496.98 323.079 496.716 322.383 496.5C321.711 496.26 320.955 496.14 320.115 496.14C318.411 496.14 317.559 496.656 317.559 497.688C317.559 498.264 317.787 498.708 318.243 499.02C318.699 499.308 319.443 499.632 320.475 499.992C320.571 500.016 320.943 500.148 321.591 500.388C323.127 500.988 324.267 501.672 325.011 502.44C325.755 503.208 326.127 504.192 326.127 505.392C326.127 507.024 325.503 508.26 324.255 509.1C323.031 509.94 321.471 510.36 319.575 510.36ZM341.576 510.36C339.608 510.36 337.964 509.976 336.644 509.208C335.324 508.416 334.352 507.372 333.728 506.076C333.104 504.756 332.792 503.316 332.792 501.756C332.792 500.004 333.152 498.468 333.872 497.148C334.616 495.828 335.636 494.82 336.932 494.124C338.228 493.404 339.692 493.044 341.324 493.044C343.868 493.044 345.752 493.752 346.976 495.168C348.224 496.56 348.848 498.528 348.848 501.072C348.848 501.72 348.812 502.392 348.74 503.088H336.86C337.124 504.552 337.64 505.608 338.408 506.256C339.2 506.904 340.292 507.228 341.684 507.228C342.836 507.228 343.784 507.132 344.528 506.94C345.272 506.748 345.956 506.484 346.58 506.148L347.768 508.92C347.168 509.304 346.352 509.64 345.32 509.928C344.288 510.216 343.04 510.36 341.576 510.36ZM345.068 500.388C345.092 498.9 344.768 497.856 344.096 497.256C343.424 496.632 342.464 496.32 341.216 496.32C338.696 496.32 337.244 497.676 336.86 500.388H345.068ZM356.524 493.476H360.34L360.376 496.5C360.832 495.492 361.552 494.664 362.536 494.016C363.52 493.368 364.672 493.044 365.992 493.044C367.696 493.044 369.004 493.404 369.916 494.124C370.828 494.82 371.44 495.804 371.752 497.076C372.064 498.348 372.22 500.004 372.22 502.044V510H368.332V502.152C368.332 500.064 368.128 498.564 367.72 497.652C367.312 496.716 366.472 496.248 365.2 496.248C364.48 496.248 363.748 496.476 363.004 496.932C362.26 497.364 361.636 498 361.132 498.84C360.652 499.68 360.412 500.664 360.412 501.792V510H356.524V493.476ZM382.271 496.644H379.355V493.476H382.271V486.744L386.195 485.88V493.476H390.011V496.644H386.195V510H382.271V496.644ZM397.059 493.476H401.091V510H397.059V493.476ZM399.039 490.38C398.295 490.38 397.671 490.128 397.167 489.624C396.663 489.12 396.411 488.496 396.411 487.752C396.411 487.08 396.663 486.504 397.167 486.024C397.671 485.544 398.295 485.304 399.039 485.304C399.759 485.304 400.371 485.544 400.875 486.024C401.379 486.504 401.631 487.08 401.631 487.752C401.631 488.496 401.379 489.12 400.875 489.624C400.395 490.128 399.783 490.38 399.039 490.38ZM417.382 510.36C415.894 510.36 414.514 510.012 413.242 509.316C411.994 508.596 410.986 507.588 410.218 506.292C409.474 504.972 409.102 503.436 409.102 501.684C409.102 499.956 409.426 498.444 410.074 497.148C410.746 495.852 411.694 494.844 412.918 494.124C414.142 493.404 415.582 493.044 417.238 493.044C418.198 493.044 419.098 493.212 419.938 493.548C420.778 493.884 421.486 494.304 422.062 494.808C422.638 495.288 423.022 495.768 423.214 496.248L423.286 493.476H426.994V510H423.322L423.25 507.084C422.842 507.948 422.098 508.716 421.018 509.388C419.938 510.036 418.726 510.36 417.382 510.36ZM418.03 507.12C419.398 507.12 420.55 506.652 421.486 505.716C422.422 504.756 422.89 503.508 422.89 501.972V501.72C422.89 500.688 422.674 499.764 422.242 498.948C421.81 498.132 421.222 497.496 420.478 497.04C419.734 496.584 418.918 496.356 418.03 496.356C416.494 496.356 415.306 496.86 414.466 497.868C413.626 498.852 413.206 500.136 413.206 501.72C413.206 503.328 413.614 504.636 414.43 505.644C415.27 506.628 416.47 507.12 418.03 507.12ZM436.147 483.54H439.999V510H436.147V483.54ZM108.016 543.476H111.904V546.716C112.288 545.612 112.912 544.724 113.776 544.052C114.64 543.38 115.624 543.044 116.728 543.044C117.496 543.044 118.024 543.116 118.312 543.26L117.772 547.184C117.556 547.04 117.088 546.968 116.368 546.968C115.24 546.968 114.208 547.328 113.272 548.048C112.36 548.768 111.904 549.92 111.904 551.504V560H108.016V543.476ZM132.474 560.36C130.506 560.36 128.862 559.976 127.542 559.208C126.222 558.416 125.25 557.372 124.626 556.076C124.002 554.756 123.69 553.316 123.69 551.756C123.69 550.004 124.05 548.468 124.77 547.148C125.514 545.828 126.534 544.82 127.83 544.124C129.126 543.404 130.59 543.044 132.222 543.044C134.766 543.044 136.65 543.752 137.874 545.168C139.122 546.56 139.746 548.528 139.746 551.072C139.746 551.72 139.71 552.392 139.638 553.088H127.758C128.022 554.552 128.538 555.608 129.306 556.256C130.098 556.904 131.19 557.228 132.582 557.228C133.734 557.228 134.682 557.132 135.426 556.94C136.17 556.748 136.854 556.484 137.478 556.148L138.666 558.92C138.066 559.304 137.25 559.64 136.218 559.928C135.186 560.216 133.938 560.36 132.474 560.36ZM135.966 550.388C135.99 548.9 135.666 547.856 134.994 547.256C134.322 546.632 133.362 546.32 132.114 546.32C129.594 546.32 128.142 547.676 127.758 550.388H135.966ZM153.11 560.36C151.958 560.36 150.758 560.216 149.51 559.928C148.286 559.616 147.41 559.256 146.882 558.848L148.178 555.788C149.618 556.796 151.262 557.3 153.11 557.3C154.958 557.3 155.882 556.76 155.882 555.68C155.882 555.2 155.69 554.828 155.306 554.564C154.922 554.3 154.238 553.988 153.254 553.628L151.886 553.124C150.446 552.548 149.306 551.864 148.466 551.072C147.626 550.256 147.206 549.188 147.206 547.868C147.206 546.356 147.794 545.18 148.97 544.34C150.17 543.476 151.766 543.044 153.758 543.044C154.742 543.044 155.702 543.152 156.638 543.368C157.598 543.584 158.33 543.86 158.834 544.196L157.43 547.292C157.118 546.98 156.614 546.716 155.918 546.5C155.246 546.26 154.49 546.14 153.65 546.14C151.946 546.14 151.094 546.656 151.094 547.688C151.094 548.264 151.322 548.708 151.778 549.02C152.234 549.308 152.978 549.632 154.01 549.992C154.106 550.016 154.478 550.148 155.126 550.388C156.662 550.988 157.802 551.672 158.546 552.44C159.29 553.208 159.662 554.192 159.662 555.392C159.662 557.024 159.038 558.26 157.79 559.1C156.566 559.94 155.006 560.36 153.11 560.36ZM175.003 560.36C173.299 560.36 171.787 559.976 170.467 559.208C169.147 558.44 168.127 557.396 167.407 556.076C166.687 554.756 166.327 553.292 166.327 551.684C166.327 550.1 166.675 548.648 167.371 547.328C168.091 546.008 169.111 544.964 170.431 544.196C171.751 543.428 173.275 543.044 175.003 543.044C176.731 543.044 178.243 543.428 179.539 544.196C180.859 544.964 181.867 546.008 182.563 547.328C183.283 548.648 183.643 550.1 183.643 551.684C183.643 553.292 183.283 554.756 182.563 556.076C181.843 557.396 180.823 558.44 179.503 559.208C178.207 559.976 176.707 560.36 175.003 560.36ZM175.111 557.192C176.503 557.192 177.595 556.676 178.387 555.644C179.203 554.612 179.611 553.316 179.611 551.756C179.611 550.196 179.179 548.888 178.315 547.832C177.451 546.752 176.311 546.212 174.895 546.212C173.527 546.212 172.423 546.74 171.583 547.796C170.767 548.852 170.359 550.172 170.359 551.756C170.359 553.292 170.803 554.588 171.691 555.644C172.579 556.676 173.719 557.192 175.111 557.192ZM197.119 560.36C194.839 560.36 193.267 559.688 192.403 558.344C191.563 557 191.143 555.128 191.143 552.728V543.476H195.031V551.756C195.031 553.124 195.103 554.192 195.247 554.96C195.415 555.704 195.727 556.256 196.183 556.616C196.663 556.976 197.371 557.156 198.307 557.156C198.979 557.156 199.627 556.964 200.251 556.58C200.875 556.196 201.379 555.68 201.763 555.032C202.171 554.36 202.375 553.628 202.375 552.836V543.476H206.227V560H203.059L202.627 557.588C202.027 558.524 201.271 559.22 200.359 559.676C199.471 560.132 198.391 560.36 197.119 560.36ZM214.891 543.476H218.779V546.716C219.163 545.612 219.787 544.724 220.651 544.052C221.515 543.38 222.499 543.044 223.603 543.044C224.371 543.044 224.899 543.116 225.187 543.26L224.647 547.184C224.431 547.04 223.963 546.968 223.243 546.968C222.115 546.968 221.083 547.328 220.147 548.048C219.235 548.768 218.779 549.92 218.779 551.504V560H214.891V543.476ZM239.241 560.36C237.609 560.36 236.133 560.012 234.813 559.316C233.517 558.596 232.485 557.576 231.717 556.256C230.949 554.912 230.565 553.34 230.565 551.54C230.565 549.836 230.913 548.348 231.609 547.076C232.329 545.78 233.325 544.784 234.597 544.088C235.893 543.392 237.381 543.044 239.061 543.044C240.333 543.044 241.425 543.212 242.337 543.548C243.273 543.86 244.005 544.256 244.533 544.736L242.805 547.868C241.797 546.86 240.657 546.356 239.385 546.356C237.849 546.356 236.673 546.824 235.857 547.76C235.065 548.696 234.669 549.944 234.669 551.504C234.669 553.28 235.077 554.66 235.893 555.644C236.733 556.628 237.897 557.12 239.385 557.12C240.129 557.12 240.849 557.012 241.545 556.796C242.265 556.58 242.817 556.328 243.201 556.04L244.605 558.776C244.077 559.184 243.333 559.556 242.373 559.892C241.437 560.204 240.393 560.36 239.241 560.36ZM259.718 560.36C257.75 560.36 256.106 559.976 254.786 559.208C253.466 558.416 252.494 557.372 251.87 556.076C251.246 554.756 250.934 553.316 250.934 551.756C250.934 550.004 251.294 548.468 252.014 547.148C252.758 545.828 253.778 544.82 255.074 544.124C256.37 543.404 257.834 543.044 259.466 543.044C262.01 543.044 263.894 543.752 265.118 545.168C266.366 546.56 266.99 548.528 266.99 551.072C266.99 551.72 266.954 552.392 266.882 553.088H255.002C255.266 554.552 255.782 555.608 256.55 556.256C257.342 556.904 258.434 557.228 259.826 557.228C260.978 557.228 261.926 557.132 262.67 556.94C263.414 556.748 264.098 556.484 264.722 556.148L265.91 558.92C265.31 559.304 264.494 559.64 263.462 559.928C262.43 560.216 261.182 560.36 259.718 560.36ZM263.21 550.388C263.234 548.9 262.91 547.856 262.238 547.256C261.566 546.632 260.606 546.32 259.358 546.32C256.838 546.32 255.386 547.676 255.002 550.388H263.21ZM280.355 560.36C279.203 560.36 278.003 560.216 276.755 559.928C275.531 559.616 274.655 559.256 274.127 558.848L275.423 555.788C276.863 556.796 278.507 557.3 280.355 557.3C282.203 557.3 283.127 556.76 283.127 555.68C283.127 555.2 282.935 554.828 282.551 554.564C282.167 554.3 281.483 553.988 280.499 553.628L279.131 553.124C277.691 552.548 276.551 551.864 275.711 551.072C274.871 550.256 274.451 549.188 274.451 547.868C274.451 546.356 275.039 545.18 276.215 544.34C277.415 543.476 279.011 543.044 281.003 543.044C281.987 543.044 282.947 543.152 283.883 543.368C284.843 543.584 285.575 543.86 286.079 544.196L284.675 547.292C284.363 546.98 283.859 546.716 283.163 546.5C282.491 546.26 281.735 546.14 280.895 546.14C279.191 546.14 278.339 546.656 278.339 547.688C278.339 548.264 278.567 548.708 279.023 549.02C279.479 549.308 280.223 549.632 281.255 549.992C281.351 550.016 281.723 550.148 282.371 550.388C283.907 550.988 285.047 551.672 285.791 552.44C286.535 553.208 286.907 554.192 286.907 555.392C286.907 557.024 286.283 558.26 285.035 559.1C283.811 559.94 282.251 560.36 280.355 560.36ZM308.408 546.644H305.492V543.476H308.408V536.744L312.332 535.88V543.476H316.148V546.644H312.332V560H308.408V546.644ZM330.612 560.36C328.908 560.36 327.396 559.976 326.076 559.208C324.756 558.44 323.736 557.396 323.016 556.076C322.296 554.756 321.936 553.292 321.936 551.684C321.936 550.1 322.284 548.648 322.98 547.328C323.7 546.008 324.72 544.964 326.04 544.196C327.36 543.428 328.884 543.044 330.612 543.044C332.34 543.044 333.852 543.428 335.148 544.196C336.468 544.964 337.476 546.008 338.172 547.328C338.892 548.648 339.252 550.1 339.252 551.684C339.252 553.292 338.892 554.756 338.172 556.076C337.452 557.396 336.432 558.44 335.112 559.208C333.816 559.976 332.316 560.36 330.612 560.36ZM330.72 557.192C332.112 557.192 333.204 556.676 333.996 555.644C334.812 554.612 335.22 553.316 335.22 551.756C335.22 550.196 334.788 548.888 333.924 547.832C333.06 546.752 331.92 546.212 330.504 546.212C329.136 546.212 328.032 546.74 327.192 547.796C326.376 548.852 325.968 550.172 325.968 551.756C325.968 553.292 326.412 554.588 327.3 555.644C328.188 556.676 329.328 557.192 330.72 557.192ZM367.24 560.36C365.272 560.36 363.628 559.976 362.308 559.208C360.988 558.416 360.016 557.372 359.392 556.076C358.768 554.756 358.456 553.316 358.456 551.756C358.456 550.004 358.816 548.468 359.536 547.148C360.28 545.828 361.3 544.82 362.596 544.124C363.892 543.404 365.356 543.044 366.988 543.044C369.532 543.044 371.416 543.752 372.64 545.168C373.888 546.56 374.512 548.528 374.512 551.072C374.512 551.72 374.476 552.392 374.404 553.088H362.524C362.788 554.552 363.304 555.608 364.072 556.256C364.864 556.904 365.956 557.228 367.348 557.228C368.5 557.228 369.448 557.132 370.192 556.94C370.936 556.748 371.62 556.484 372.244 556.148L373.432 558.92C372.832 559.304 372.016 559.64 370.984 559.928C369.952 560.216 368.704 560.36 367.24 560.36ZM370.732 550.388C370.756 548.9 370.432 547.856 369.76 547.256C369.088 546.632 368.128 546.32 366.88 546.32C364.36 546.32 362.908 547.676 362.524 550.388H370.732ZM382.188 543.476H386.004L386.04 546.5C386.496 545.492 387.216 544.664 388.2 544.016C389.184 543.368 390.336 543.044 391.656 543.044C393.36 543.044 394.668 543.404 395.58 544.124C396.492 544.82 397.104 545.804 397.416 547.076C397.728 548.348 397.884 550.004 397.884 552.044V560H393.996V552.152C393.996 550.064 393.792 548.564 393.384 547.652C392.976 546.716 392.136 546.248 390.864 546.248C390.144 546.248 389.412 546.476 388.668 546.932C387.924 547.364 387.3 548 386.796 548.84C386.316 549.68 386.076 550.664 386.076 551.792V560H382.188V543.476ZM406.675 533.54H410.455V543.476L410.311 546.536C410.767 545.528 411.499 544.7 412.507 544.052C413.515 543.38 414.691 543.044 416.035 543.044C417.739 543.044 419.047 543.404 419.959 544.124C420.871 544.82 421.483 545.804 421.795 547.076C422.107 548.348 422.263 550.004 422.263 552.044V560H418.411V552.008C418.411 550.616 418.327 549.524 418.159 548.732C418.015 547.94 417.703 547.34 417.223 546.932C416.767 546.524 416.095 546.32 415.207 546.32C414.487 546.32 413.755 546.536 413.011 546.968C412.291 547.4 411.691 548.036 411.211 548.876C410.731 549.692 410.491 550.664 410.491 551.792V560H406.675V533.54ZM438.11 560.36C436.622 560.36 435.242 560.012 433.97 559.316C432.722 558.596 431.714 557.588 430.946 556.292C430.202 554.972 429.83 553.436 429.83 551.684C429.83 549.956 430.154 548.444 430.802 547.148C431.474 545.852 432.422 544.844 433.646 544.124C434.87 543.404 436.31 543.044 437.966 543.044C438.926 543.044 439.826 543.212 440.666 543.548C441.506 543.884 442.214 544.304 442.79 544.808C443.366 545.288 443.75 545.768 443.942 546.248L444.014 543.476H447.722V560H444.05L443.978 557.084C443.57 557.948 442.826 558.716 441.746 559.388C440.666 560.036 439.454 560.36 438.11 560.36ZM438.758 557.12C440.126 557.12 441.278 556.652 442.214 555.716C443.15 554.756 443.618 553.508 443.618 551.972V551.72C443.618 550.688 443.402 549.764 442.97 548.948C442.538 548.132 441.95 547.496 441.206 547.04C440.462 546.584 439.646 546.356 438.758 546.356C437.222 546.356 436.034 546.86 435.194 547.868C434.354 548.852 433.934 550.136 433.934 551.72C433.934 553.328 434.342 554.636 435.158 555.644C435.998 556.628 437.198 557.12 438.758 557.12ZM456.551 543.476H460.367L460.403 546.5C460.859 545.492 461.579 544.664 462.563 544.016C463.547 543.368 464.699 543.044 466.019 543.044C467.723 543.044 469.031 543.404 469.943 544.124C470.855 544.82 471.467 545.804 471.779 547.076C472.091 548.348 472.247 550.004 472.247 552.044V560H468.359V552.152C468.359 550.064 468.155 548.564 467.747 547.652C467.339 546.716 466.499 546.248 465.227 546.248C464.507 546.248 463.775 546.476 463.031 546.932C462.287 547.364 461.663 548 461.159 548.84C460.679 549.68 460.439 550.664 460.439 551.792V560H456.551V543.476ZM488.562 560.36C486.93 560.36 485.454 560.012 484.134 559.316C482.838 558.596 481.806 557.576 481.038 556.256C480.27 554.912 479.886 553.34 479.886 551.54C479.886 549.836 480.234 548.348 480.93 547.076C481.65 545.78 482.646 544.784 483.918 544.088C485.214 543.392 486.702 543.044 488.382 543.044C489.654 543.044 490.746 543.212 491.658 543.548C492.594 543.86 493.326 544.256 493.854 544.736L492.126 547.868C491.118 546.86 489.978 546.356 488.706 546.356C487.17 546.356 485.994 546.824 485.178 547.76C484.386 548.696 483.99 549.944 483.99 551.504C483.99 553.28 484.398 554.66 485.214 555.644C486.054 556.628 487.218 557.12 488.706 557.12C489.45 557.12 490.17 557.012 490.866 556.796C491.586 556.58 492.138 556.328 492.522 556.04L493.926 558.776C493.398 559.184 492.654 559.556 491.694 559.892C490.758 560.204 489.714 560.36 488.562 560.36ZM509.039 560.36C507.071 560.36 505.427 559.976 504.107 559.208C502.787 558.416 501.815 557.372 501.191 556.076C500.567 554.756 500.255 553.316 500.255 551.756C500.255 550.004 500.615 548.468 501.335 547.148C502.079 545.828 503.099 544.82 504.395 544.124C505.691 543.404 507.155 543.044 508.787 543.044C511.331 543.044 513.215 543.752 514.439 545.168C515.687 546.56 516.311 548.528 516.311 551.072C516.311 551.72 516.275 552.392 516.203 553.088H504.323C504.587 554.552 505.103 555.608 505.871 556.256C506.663 556.904 507.755 557.228 509.147 557.228C510.299 557.228 511.247 557.132 511.991 556.94C512.735 556.748 513.419 556.484 514.043 556.148L515.231 558.92C514.631 559.304 513.815 559.64 512.783 559.928C511.751 560.216 510.503 560.36 509.039 560.36ZM512.531 550.388C512.555 548.9 512.231 547.856 511.559 547.256C510.887 546.632 509.927 546.32 508.679 546.32C506.159 546.32 504.707 547.676 504.323 550.388H512.531ZM154.319 610.504L147.479 593.476H151.871L155.399 603.988L156.191 606.544L156.983 603.988L160.691 593.476H164.939L154.787 619.072H150.755L154.319 610.504ZM178.765 610.36C177.061 610.36 175.549 609.976 174.229 609.208C172.909 608.44 171.889 607.396 171.169 606.076C170.449 604.756 170.089 603.292 170.089 601.684C170.089 600.1 170.437 598.648 171.133 597.328C171.853 596.008 172.873 594.964 174.193 594.196C175.513 593.428 177.037 593.044 178.765 593.044C180.493 593.044 182.005 593.428 183.301 594.196C184.621 594.964 185.629 596.008 186.325 597.328C187.045 598.648 187.405 600.1 187.405 601.684C187.405 603.292 187.045 604.756 186.325 606.076C185.605 607.396 184.585 608.44 183.265 609.208C181.969 609.976 180.469 610.36 178.765 610.36ZM178.873 607.192C180.265 607.192 181.357 606.676 182.149 605.644C182.965 604.612 183.373 603.316 183.373 601.756C183.373 600.196 182.941 598.888 182.077 597.832C181.213 596.752 180.073 596.212 178.657 596.212C177.289 596.212 176.185 596.74 175.345 597.796C174.529 598.852 174.121 600.172 174.121 601.756C174.121 603.292 174.565 604.588 175.453 605.644C176.341 606.676 177.481 607.192 178.873 607.192ZM200.881 610.36C198.601 610.36 197.029 609.688 196.165 608.344C195.325 607 194.905 605.128 194.905 602.728V593.476H198.793V601.756C198.793 603.124 198.865 604.192 199.009 604.96C199.177 605.704 199.489 606.256 199.945 606.616C200.425 606.976 201.133 607.156 202.069 607.156C202.741 607.156 203.389 606.964 204.013 606.58C204.637 606.196 205.141 605.68 205.525 605.032C205.933 604.36 206.137 603.628 206.137 602.836V593.476H209.989V610H206.821L206.389 607.588C205.789 608.524 205.033 609.22 204.121 609.676C203.233 610.132 202.153 610.36 200.881 610.36ZM218.653 593.476H222.541V596.716C222.925 595.612 223.549 594.724 224.413 594.052C225.277 593.38 226.261 593.044 227.365 593.044C228.133 593.044 228.661 593.116 228.949 593.26L228.409 597.184C228.193 597.04 227.725 596.968 227.005 596.968C225.877 596.968 224.845 597.328 223.909 598.048C222.997 598.768 222.541 599.92 222.541 601.504V610H218.653V593.476ZM255.535 610.36C253.567 610.36 251.923 609.976 250.603 609.208C249.283 608.416 248.311 607.372 247.687 606.076C247.063 604.756 246.751 603.316 246.751 601.756C246.751 600.004 247.111 598.468 247.831 597.148C248.575 595.828 249.595 594.82 250.891 594.124C252.187 593.404 253.651 593.044 255.283 593.044C257.827 593.044 259.711 593.752 260.935 595.168C262.183 596.56 262.807 598.528 262.807 601.072C262.807 601.72 262.771 602.392 262.699 603.088H250.819C251.083 604.552 251.599 605.608 252.367 606.256C253.159 606.904 254.251 607.228 255.643 607.228C256.795 607.228 257.743 607.132 258.487 606.94C259.231 606.748 259.915 606.484 260.539 606.148L261.727 608.92C261.127 609.304 260.311 609.64 259.279 609.928C258.247 610.216 256.999 610.36 255.535 610.36ZM259.027 600.388C259.051 598.9 258.727 597.856 258.055 597.256C257.383 596.632 256.423 596.32 255.175 596.32C252.655 596.32 251.203 597.676 250.819 600.388H259.027ZM277.791 610.36C276.303 610.36 274.923 610.012 273.651 609.316C272.403 608.596 271.395 607.588 270.627 606.292C269.883 604.972 269.511 603.436 269.511 601.684C269.511 599.068 270.243 596.98 271.707 595.42C273.171 593.836 275.151 593.044 277.647 593.044C279.039 593.044 280.311 593.392 281.463 594.088C282.615 594.76 283.395 595.576 283.803 596.536L283.623 593.728V583.54H287.439V610H283.731L283.659 607.084C283.251 607.948 282.507 608.716 281.427 609.388C280.347 610.036 279.135 610.36 277.791 610.36ZM278.439 607.084C279.807 607.084 280.959 606.616 281.895 605.68C282.831 604.72 283.299 603.472 283.299 601.936V601.684C283.299 600.652 283.083 599.728 282.651 598.912C282.219 598.096 281.631 597.46 280.887 597.004C280.143 596.548 279.327 596.32 278.439 596.32C276.903 596.32 275.715 596.824 274.875 597.832C274.035 598.816 273.615 600.1 273.615 601.684C273.615 603.292 274.023 604.6 274.839 605.608C275.679 606.592 276.879 607.084 278.439 607.084ZM301.92 610.36C299.64 610.36 298.068 609.688 297.204 608.344C296.364 607 295.944 605.128 295.944 602.728V593.476H299.832V601.756C299.832 603.124 299.904 604.192 300.048 604.96C300.216 605.704 300.528 606.256 300.984 606.616C301.464 606.976 302.172 607.156 303.108 607.156C303.78 607.156 304.428 606.964 305.052 606.58C305.676 606.196 306.18 605.68 306.564 605.032C306.972 604.36 307.176 603.628 307.176 602.836V593.476H311.028V610H307.86L307.428 607.588C306.828 608.524 306.072 609.22 305.16 609.676C304.272 610.132 303.192 610.36 301.92 610.36ZM327.504 610.36C325.872 610.36 324.396 610.012 323.076 609.316C321.78 608.596 320.748 607.576 319.98 606.256C319.212 604.912 318.828 603.34 318.828 601.54C318.828 599.836 319.176 598.348 319.872 597.076C320.592 595.78 321.588 594.784 322.86 594.088C324.156 593.392 325.644 593.044 327.324 593.044C328.596 593.044 329.688 593.212 330.6 593.548C331.536 593.86 332.268 594.256 332.796 594.736L331.068 597.868C330.06 596.86 328.92 596.356 327.648 596.356C326.112 596.356 324.936 596.824 324.12 597.76C323.328 598.696 322.932 599.944 322.932 601.504C322.932 603.28 323.34 604.66 324.156 605.644C324.996 606.628 326.16 607.12 327.648 607.12C328.392 607.12 329.112 607.012 329.808 606.796C330.528 606.58 331.08 606.328 331.464 606.04L332.868 608.776C332.34 609.184 331.596 609.556 330.636 609.892C329.7 610.204 328.656 610.36 327.504 610.36ZM347.478 610.36C345.99 610.36 344.61 610.012 343.338 609.316C342.09 608.596 341.082 607.588 340.314 606.292C339.57 604.972 339.198 603.436 339.198 601.684C339.198 599.956 339.522 598.444 340.17 597.148C340.842 595.852 341.79 594.844 343.014 594.124C344.238 593.404 345.678 593.044 347.334 593.044C348.294 593.044 349.194 593.212 350.034 593.548C350.874 593.884 351.582 594.304 352.158 594.808C352.734 595.288 353.118 595.768 353.31 596.248L353.382 593.476H357.09V610H353.418L353.346 607.084C352.938 607.948 352.194 608.716 351.114 609.388C350.034 610.036 348.822 610.36 347.478 610.36ZM348.126 607.12C349.494 607.12 350.646 606.652 351.582 605.716C352.518 604.756 352.986 603.508 352.986 601.972V601.72C352.986 600.688 352.77 599.764 352.338 598.948C351.906 598.132 351.318 597.496 350.574 597.04C349.83 596.584 349.014 596.356 348.126 596.356C346.59 596.356 345.402 596.86 344.562 597.868C343.722 598.852 343.302 600.136 343.302 601.72C343.302 603.328 343.71 604.636 344.526 605.644C345.366 606.628 346.566 607.12 348.126 607.12ZM367.358 596.644H364.442V593.476H367.358V586.744L371.282 585.88V593.476H375.098V596.644H371.282V610H367.358V596.644ZM382.146 593.476H386.178V610H382.146V593.476ZM384.126 590.38C383.382 590.38 382.758 590.128 382.254 589.624C381.75 589.12 381.498 588.496 381.498 587.752C381.498 587.08 381.75 586.504 382.254 586.024C382.758 585.544 383.382 585.304 384.126 585.304C384.846 585.304 385.458 585.544 385.962 586.024C386.466 586.504 386.718 587.08 386.718 587.752C386.718 588.496 386.466 589.12 385.962 589.624C385.482 590.128 384.87 590.38 384.126 590.38ZM402.865 610.36C401.161 610.36 399.649 609.976 398.329 609.208C397.009 608.44 395.989 607.396 395.269 606.076C394.549 604.756 394.189 603.292 394.189 601.684C394.189 600.1 394.537 598.648 395.233 597.328C395.953 596.008 396.973 594.964 398.293 594.196C399.613 593.428 401.137 593.044 402.865 593.044C404.593 593.044 406.105 593.428 407.401 594.196C408.721 594.964 409.729 596.008 410.425 597.328C411.145 598.648 411.505 600.1 411.505 601.684C411.505 603.292 411.145 604.756 410.425 606.076C409.705 607.396 408.685 608.44 407.365 609.208C406.069 609.976 404.569 610.36 402.865 610.36ZM402.973 607.192C404.365 607.192 405.457 606.676 406.249 605.644C407.065 604.612 407.473 603.316 407.473 601.756C407.473 600.196 407.041 598.888 406.177 597.832C405.313 596.752 404.173 596.212 402.757 596.212C401.389 596.212 400.285 596.74 399.445 597.796C398.629 598.852 398.221 600.172 398.221 601.756C398.221 603.292 398.665 604.588 399.553 605.644C400.441 606.676 401.581 607.192 402.973 607.192ZM419.257 593.476H423.073L423.109 596.5C423.565 595.492 424.285 594.664 425.269 594.016C426.253 593.368 427.405 593.044 428.725 593.044C430.429 593.044 431.737 593.404 432.649 594.124C433.561 594.82 434.173 595.804 434.485 597.076C434.797 598.348 434.953 600.004 434.953 602.044V610H431.065V602.152C431.065 600.064 430.861 598.564 430.453 597.652C430.045 596.716 429.205 596.248 427.933 596.248C427.213 596.248 426.481 596.476 425.737 596.932C424.993 597.364 424.369 598 423.865 598.84C423.385 599.68 423.145 600.664 423.145 601.792V610H419.257V593.476ZM450.872 610.36C449.384 610.36 448.004 610.012 446.732 609.316C445.484 608.596 444.476 607.588 443.708 606.292C442.964 604.972 442.592 603.436 442.592 601.684C442.592 599.956 442.916 598.444 443.564 597.148C444.236 595.852 445.184 594.844 446.408 594.124C447.632 593.404 449.072 593.044 450.728 593.044C451.688 593.044 452.588 593.212 453.428 593.548C454.268 593.884 454.976 594.304 455.552 594.808C456.128 595.288 456.512 595.768 456.704 596.248L456.776 593.476H460.484V610H456.812L456.74 607.084C456.332 607.948 455.588 608.716 454.508 609.388C453.428 610.036 452.216 610.36 450.872 610.36ZM451.52 607.12C452.888 607.12 454.04 606.652 454.976 605.716C455.912 604.756 456.38 603.508 456.38 601.972V601.72C456.38 600.688 456.164 599.764 455.732 598.948C455.3 598.132 454.712 597.496 453.968 597.04C453.224 596.584 452.408 596.356 451.52 596.356C449.984 596.356 448.796 596.86 447.956 597.868C447.116 598.852 446.696 600.136 446.696 601.72C446.696 603.328 447.104 604.636 447.92 605.644C448.76 606.628 449.96 607.12 451.52 607.12ZM469.637 583.54H473.489V610H469.637V583.54ZM212.44 660.36C210.472 660.36 208.828 659.976 207.508 659.208C206.188 658.416 205.216 657.372 204.592 656.076C203.968 654.756 203.656 653.316 203.656 651.756C203.656 650.004 204.016 648.468 204.736 647.148C205.48 645.828 206.5 644.82 207.796 644.124C209.092 643.404 210.556 643.044 212.188 643.044C214.732 643.044 216.616 643.752 217.84 645.168C219.088 646.56 219.712 648.528 219.712 651.072C219.712 651.72 219.676 652.392 219.604 653.088H207.724C207.988 654.552 208.504 655.608 209.272 656.256C210.064 656.904 211.156 657.228 212.548 657.228C213.7 657.228 214.648 657.132 215.392 656.94C216.136 656.748 216.82 656.484 217.444 656.148L218.632 658.92C218.032 659.304 217.216 659.64 216.184 659.928C215.152 660.216 213.904 660.36 212.44 660.36ZM215.932 650.388C215.956 648.9 215.632 647.856 214.96 647.256C214.288 646.632 213.328 646.32 212.08 646.32C209.56 646.32 208.108 647.676 207.724 650.388H215.932ZM231.42 651.432L225.624 643.476H230.232L233.616 648.588L236.82 643.476H241.536L235.704 651.216L242.04 660H237.576L233.652 654.168L229.908 660H225.228L231.42 651.432ZM248.709 643.476H252.453V646.536C253.773 644.208 255.837 643.044 258.645 643.044C260.973 643.044 262.857 643.788 264.297 645.276C265.737 646.74 266.457 648.864 266.457 651.648C266.457 653.376 266.097 654.9 265.377 656.22C264.681 657.54 263.721 658.56 262.497 659.28C261.297 660 259.953 660.36 258.465 660.36C257.073 660.36 255.861 660.12 254.829 659.64C253.821 659.136 253.029 658.428 252.453 657.516L252.489 668.748H248.709V643.476ZM257.565 657.084C259.125 657.084 260.325 656.592 261.165 655.608C262.005 654.6 262.425 653.316 262.425 651.756C262.425 650.124 262.005 648.828 261.165 647.868C260.349 646.884 259.149 646.392 257.565 646.392C256.701 646.392 255.885 646.608 255.117 647.04C254.373 647.448 253.773 648.048 253.317 648.84C252.885 649.608 252.669 650.508 252.669 651.54V651.792C252.669 652.824 252.885 653.748 253.317 654.564C253.773 655.356 254.373 655.98 255.117 656.436C255.861 656.868 256.677 657.084 257.565 657.084ZM282.022 660.36C280.054 660.36 278.41 659.976 277.09 659.208C275.77 658.416 274.798 657.372 274.174 656.076C273.55 654.756 273.238 653.316 273.238 651.756C273.238 650.004 273.598 648.468 274.318 647.148C275.062 645.828 276.082 644.82 277.378 644.124C278.674 643.404 280.138 643.044 281.77 643.044C284.314 643.044 286.198 643.752 287.422 645.168C288.67 646.56 289.294 648.528 289.294 651.072C289.294 651.72 289.258 652.392 289.186 653.088H277.306C277.57 654.552 278.086 655.608 278.854 656.256C279.646 656.904 280.738 657.228 282.13 657.228C283.282 657.228 284.23 657.132 284.974 656.94C285.718 656.748 286.402 656.484 287.026 656.148L288.214 658.92C287.614 659.304 286.798 659.64 285.766 659.928C284.734 660.216 283.486 660.36 282.022 660.36ZM285.514 650.388C285.538 648.9 285.214 647.856 284.542 647.256C283.87 646.632 282.91 646.32 281.662 646.32C279.142 646.32 277.69 647.676 277.306 650.388H285.514ZM296.862 643.476H300.75V646.716C301.134 645.612 301.758 644.724 302.622 644.052C303.486 643.38 304.47 643.044 305.574 643.044C306.342 643.044 306.87 643.116 307.158 643.26L306.618 647.184C306.402 647.04 305.934 646.968 305.214 646.968C304.086 646.968 303.054 647.328 302.118 648.048C301.206 648.768 300.75 649.92 300.75 651.504V660H296.862V643.476ZM313.795 643.476H317.827V660H313.795V643.476ZM315.775 640.38C315.031 640.38 314.407 640.128 313.903 639.624C313.399 639.12 313.147 638.496 313.147 637.752C313.147 637.08 313.399 636.504 313.903 636.024C314.407 635.544 315.031 635.304 315.775 635.304C316.495 635.304 317.107 635.544 317.611 636.024C318.115 636.504 318.367 637.08 318.367 637.752C318.367 638.496 318.115 639.12 317.611 639.624C317.131 640.128 316.519 640.38 315.775 640.38ZM334.622 660.36C332.654 660.36 331.01 659.976 329.69 659.208C328.37 658.416 327.398 657.372 326.774 656.076C326.15 654.756 325.838 653.316 325.838 651.756C325.838 650.004 326.198 648.468 326.918 647.148C327.662 645.828 328.682 644.82 329.978 644.124C331.274 643.404 332.738 643.044 334.37 643.044C336.914 643.044 338.798 643.752 340.022 645.168C341.27 646.56 341.894 648.528 341.894 651.072C341.894 651.72 341.858 652.392 341.786 653.088H329.906C330.17 654.552 330.686 655.608 331.454 656.256C332.246 656.904 333.338 657.228 334.73 657.228C335.882 657.228 336.83 657.132 337.574 656.94C338.318 656.748 339.002 656.484 339.626 656.148L340.814 658.92C340.214 659.304 339.398 659.64 338.366 659.928C337.334 660.216 336.086 660.36 334.622 660.36ZM338.114 650.388C338.138 648.9 337.814 647.856 337.142 647.256C336.47 646.632 335.51 646.32 334.262 646.32C331.742 646.32 330.29 647.676 329.906 650.388H338.114ZM349.57 643.476H353.386L353.422 646.5C353.878 645.492 354.598 644.664 355.582 644.016C356.566 643.368 357.718 643.044 359.038 643.044C360.742 643.044 362.05 643.404 362.962 644.124C363.874 644.82 364.486 645.804 364.798 647.076C365.11 648.348 365.266 650.004 365.266 652.044V660H361.378V652.152C361.378 650.064 361.174 648.564 360.766 647.652C360.358 646.716 359.518 646.248 358.246 646.248C357.526 646.248 356.794 646.476 356.05 646.932C355.306 647.364 354.682 648 354.178 648.84C353.698 649.68 353.458 650.664 353.458 651.792V660H349.57V643.476ZM381.581 660.36C379.949 660.36 378.473 660.012 377.153 659.316C375.857 658.596 374.825 657.576 374.057 656.256C373.289 654.912 372.905 653.34 372.905 651.54C372.905 649.836 373.253 648.348 373.949 647.076C374.669 645.78 375.665 644.784 376.937 644.088C378.233 643.392 379.721 643.044 381.401 643.044C382.673 643.044 383.765 643.212 384.677 643.548C385.613 643.86 386.345 644.256 386.873 644.736L385.145 647.868C384.137 646.86 382.997 646.356 381.725 646.356C380.189 646.356 379.013 646.824 378.197 647.76C377.405 648.696 377.009 649.944 377.009 651.504C377.009 653.28 377.417 654.66 378.233 655.644C379.073 656.628 380.237 657.12 381.725 657.12C382.469 657.12 383.189 657.012 383.885 656.796C384.605 656.58 385.157 656.328 385.541 656.04L386.945 658.776C386.417 659.184 385.673 659.556 384.713 659.892C383.777 660.204 382.733 660.36 381.581 660.36ZM402.059 660.36C400.091 660.36 398.447 659.976 397.127 659.208C395.807 658.416 394.835 657.372 394.211 656.076C393.587 654.756 393.275 653.316 393.275 651.756C393.275 650.004 393.635 648.468 394.355 647.148C395.099 645.828 396.119 644.82 397.415 644.124C398.711 643.404 400.175 643.044 401.807 643.044C404.351 643.044 406.235 643.752 407.459 645.168C408.707 646.56 409.331 648.528 409.331 651.072C409.331 651.72 409.295 652.392 409.223 653.088H397.343C397.607 654.552 398.123 655.608 398.891 656.256C399.683 656.904 400.775 657.228 402.167 657.228C403.319 657.228 404.267 657.132 405.011 656.94C405.755 656.748 406.439 656.484 407.063 656.148L408.251 658.92C407.651 659.304 406.835 659.64 405.803 659.928C404.771 660.216 403.523 660.36 402.059 660.36ZM405.551 650.388C405.575 648.9 405.251 647.856 404.579 647.256C403.907 646.632 402.947 646.32 401.699 646.32C399.179 646.32 397.727 647.676 397.343 650.388H405.551ZM419.671 660.36C418.951 660.36 418.339 660.12 417.835 659.64C417.331 659.136 417.079 658.524 417.079 657.804C417.079 657.06 417.319 656.448 417.799 655.968C418.303 655.464 418.927 655.212 419.671 655.212C420.415 655.212 421.027 655.464 421.507 655.968C422.011 656.448 422.263 657.06 422.263 657.804C422.263 658.524 422.011 659.136 421.507 659.64C421.027 660.12 420.415 660.36 419.671 660.36Z" fill="black"/>
</g>
</g>
</g>
<defs>
<filter id="filter0_f_9_4" x="-1042" y="-1094" width="1816" height="1816" filterUnits="userSpaceOnUse" color-interpolation-filters="sRGB">
<feFlood flood-opacity="0" result="BackgroundImageFix"/>
<feBlend mode="normal" in="SourceGraphic" in2="BackgroundImageFix" result="shape"/>
<feGaussianBlur stdDeviation="250" result="effect1_foregroundBlur_9_4"/>
</filter>
<filter id="filter1_i_9_4" x="90" y="237" width="447" height="535" filterUnits="userSpaceOnUse" color-interpolation-filters="sRGB">
<feFlood flood-opacity="0" result="BackgroundImageFix"/>
<feBlend mode="normal" in="SourceGraphic" in2="BackgroundImageFix" result="shape"/>
<feColorMatrix in="SourceAlpha" type="matrix" values="0 0 0 0 0 0 0 0 0 0 0 0 0 0 0 0 0 0 127 0" result="hardAlpha"/>
<feOffset dy="4"/>
<feGaussianBlur stdDeviation="2"/>
<feComposite in2="hardAlpha" operator="arithmetic" k2="-1" k3="1"/>
<feColorMatrix type="matrix" values="0 0 0 0 0 0 0 0 0 0 0 0 0 0 0 0 0 0 0.25 0"/>
<feBlend mode="normal" in2="shape" result="effect1_innerShadow_9_4"/>
</filter>
<filter id="filter2_dddd_9_4" x="27" y="223" width="573" height="712" filterUnits="userSpaceOnUse" color-interpolation-filters="sRGB">
<feFlood flood-opacity="0" result="BackgroundImageFix"/>
<feColorMatrix in="SourceAlpha" type="matrix" values="0 0 0 0 0 0 0 0 0 0 0 0 0 0 0 0 0 0 127 0" result="hardAlpha"/>
<feOffset/>
<feColorMatrix type="matrix" values="0 0 0 0 0 0 0 0 0 0 0 0 0 0 0 0 0 0 0.03 0"/>
<feBlend mode="normal" in2="BackgroundImageFix" result="effect1_dropShadow_9_4"/>
<feColorMatrix in="SourceAlpha" type="matrix" values="0 0 0 0 0 0 0 0 0 0 0 0 0 0 0 0 0 0 127 0" result="hardAlpha"/>
<feOffset dy="12"/>
<feGaussianBlur stdDeviation="13"/>
<feColorMatrix type="matrix" values="0 0 0 0 0 0 0 0 0 0 0 0 0 0 0 0 0 0 0.03 0"/>
<feBlend mode="normal" in2="effect1_dropShadow_9_4" result="effect2_dropShadow_9_4"/>
<feColorMatrix in="SourceAlpha" type="matrix" values="0 0 0 0 0 0 0 0 0 0 0 0 0 0 0 0 0 0 127 0" result="hardAlpha"/>
<feOffset dy="46"/>
<feGaussianBlur stdDeviation="23"/>
<feColorMatrix type="matrix" values="0 0 0 0 0 0 0 0 0 0 0 0 0 0 0 0 0 0 0.03 0"/>
<feBlend mode="normal" in2="effect2_dropShadow_9_4" result="effect3_dropShadow_9_4"/>
<feColorMatrix in="SourceAlpha" type="matrix" values="0 0 0 0 0 0 0 0 0 0 0 0 0 0 0 0 0 0 127 0" result="hardAlpha"/>
<feOffset dy="104"/>
<feGaussianBlur stdDeviation="31.5"/>
<feColorMatrix type="matrix" values="0 0 0 0 0 0 0 0 0 0 0 0 0 0 0 0 0 0 0.02 0"/>
<feBlend mode="normal" in2="effect3_dropShadow_9_4" result="effect4_dropShadow_9_4"/>
<feBlend mode="normal" in="SourceGraphic" in2="effect4_dropShadow_9_4" result="shape"/>
</filter>
<clipPath id="clip0_9_4">
<rect width="626" height="868" rx="40" fill="white"/>
</clipPath>
</defs>
</svg>
